<svg xmlns="http://www.w3.org/2000/svg" xmlns:xlink="http://www.w3.org/1999/xlink" width="600" height="400" viewBox="0 0 2400 1600">
<defs>
  <clipPath id="clip450">
    <rect x="0" y="0" width="2400" height="1600"></rect>
  </clipPath>
</defs>
<path clip-path="url(#clip450)" d="M0 1600 L2400 1600 L2400 0 L0 0  Z" fill="#ffffff" fill-rule="evenodd" fill-opacity="1"></path>
<defs>
  <clipPath id="clip451">
    <rect x="480" y="0" width="1681" height="1600"></rect>
  </clipPath>
</defs>
<path clip-path="url(#clip450)" d="M287.366 1423.18 L2352.76 1423.18 L2352.76 47.2441 L287.366 47.2441  Z" fill="#ffffff" fill-rule="evenodd" fill-opacity="1"></path>
<defs>
  <clipPath id="clip452">
    <rect x="287" y="47" width="2066" height="1377"></rect>
  </clipPath>
</defs>
<polyline clip-path="url(#clip452)" style="stroke:#000000; stroke-linecap:round; stroke-linejoin:round; stroke-width:2; stroke-opacity:0.1; fill:none" points="326.139,1423.18 326.139,47.2441 "></polyline>
<polyline clip-path="url(#clip452)" style="stroke:#000000; stroke-linecap:round; stroke-linejoin:round; stroke-width:2; stroke-opacity:0.1; fill:none" points="818.179,1423.18 818.179,47.2441 "></polyline>
<polyline clip-path="url(#clip452)" style="stroke:#000000; stroke-linecap:round; stroke-linejoin:round; stroke-width:2; stroke-opacity:0.1; fill:none" points="1310.22,1423.18 1310.22,47.2441 "></polyline>
<polyline clip-path="url(#clip452)" style="stroke:#000000; stroke-linecap:round; stroke-linejoin:round; stroke-width:2; stroke-opacity:0.1; fill:none" points="1802.26,1423.18 1802.26,47.2441 "></polyline>
<polyline clip-path="url(#clip452)" style="stroke:#000000; stroke-linecap:round; stroke-linejoin:round; stroke-width:2; stroke-opacity:0.1; fill:none" points="2294.3,1423.18 2294.3,47.2441 "></polyline>
<polyline clip-path="url(#clip452)" style="stroke:#000000; stroke-linecap:round; stroke-linejoin:round; stroke-width:2; stroke-opacity:0.1; fill:none" points="287.366,1355.1 2352.76,1355.1 "></polyline>
<polyline clip-path="url(#clip452)" style="stroke:#000000; stroke-linecap:round; stroke-linejoin:round; stroke-width:2; stroke-opacity:0.1; fill:none" points="287.366,1037.28 2352.76,1037.28 "></polyline>
<polyline clip-path="url(#clip452)" style="stroke:#000000; stroke-linecap:round; stroke-linejoin:round; stroke-width:2; stroke-opacity:0.1; fill:none" points="287.366,719.456 2352.76,719.456 "></polyline>
<polyline clip-path="url(#clip452)" style="stroke:#000000; stroke-linecap:round; stroke-linejoin:round; stroke-width:2; stroke-opacity:0.1; fill:none" points="287.366,401.635 2352.76,401.635 "></polyline>
<polyline clip-path="url(#clip452)" style="stroke:#000000; stroke-linecap:round; stroke-linejoin:round; stroke-width:2; stroke-opacity:0.1; fill:none" points="287.366,83.8138 2352.76,83.8138 "></polyline>
<polyline clip-path="url(#clip450)" style="stroke:#000000; stroke-linecap:round; stroke-linejoin:round; stroke-width:4; stroke-opacity:1; fill:none" points="287.366,1423.18 2352.76,1423.18 "></polyline>
<polyline clip-path="url(#clip450)" style="stroke:#000000; stroke-linecap:round; stroke-linejoin:round; stroke-width:4; stroke-opacity:1; fill:none" points="326.139,1423.18 326.139,1404.28 "></polyline>
<polyline clip-path="url(#clip450)" style="stroke:#000000; stroke-linecap:round; stroke-linejoin:round; stroke-width:4; stroke-opacity:1; fill:none" points="818.179,1423.18 818.179,1404.28 "></polyline>
<polyline clip-path="url(#clip450)" style="stroke:#000000; stroke-linecap:round; stroke-linejoin:round; stroke-width:4; stroke-opacity:1; fill:none" points="1310.22,1423.18 1310.22,1404.28 "></polyline>
<polyline clip-path="url(#clip450)" style="stroke:#000000; stroke-linecap:round; stroke-linejoin:round; stroke-width:4; stroke-opacity:1; fill:none" points="1802.26,1423.18 1802.26,1404.28 "></polyline>
<polyline clip-path="url(#clip450)" style="stroke:#000000; stroke-linecap:round; stroke-linejoin:round; stroke-width:4; stroke-opacity:1; fill:none" points="2294.3,1423.18 2294.3,1404.28 "></polyline>
<path clip-path="url(#clip450)" d="M288.442 1454.1 Q284.831 1454.1 283.002 1457.66 Q281.197 1461.2 281.197 1468.33 Q281.197 1475.44 283.002 1479.01 Q284.831 1482.55 288.442 1482.55 Q292.076 1482.55 293.882 1479.01 Q295.711 1475.44 295.711 1468.33 Q295.711 1461.2 293.882 1457.66 Q292.076 1454.1 288.442 1454.1 M288.442 1450.39 Q294.252 1450.39 297.308 1455 Q300.387 1459.58 300.387 1468.33 Q300.387 1477.06 297.308 1481.67 Q294.252 1486.25 288.442 1486.25 Q282.632 1486.25 279.553 1481.67 Q276.498 1477.06 276.498 1468.33 Q276.498 1459.58 279.553 1455 Q282.632 1450.39 288.442 1450.39 Z" fill="#000000" fill-rule="nonzero" fill-opacity="1"></path><path clip-path="url(#clip450)" d="M308.604 1479.7 L313.488 1479.7 L313.488 1485.58 L308.604 1485.58 L308.604 1479.7 Z" fill="#000000" fill-rule="nonzero" fill-opacity="1"></path><path clip-path="url(#clip450)" d="M333.673 1454.1 Q330.062 1454.1 328.234 1457.66 Q326.428 1461.2 326.428 1468.33 Q326.428 1475.44 328.234 1479.01 Q330.062 1482.55 333.673 1482.55 Q337.308 1482.55 339.113 1479.01 Q340.942 1475.44 340.942 1468.33 Q340.942 1461.2 339.113 1457.66 Q337.308 1454.1 333.673 1454.1 M333.673 1450.39 Q339.484 1450.39 342.539 1455 Q345.618 1459.58 345.618 1468.33 Q345.618 1477.06 342.539 1481.67 Q339.484 1486.25 333.673 1486.25 Q327.863 1486.25 324.785 1481.67 Q321.729 1477.06 321.729 1468.33 Q321.729 1459.58 324.785 1455 Q327.863 1450.39 333.673 1450.39 Z" fill="#000000" fill-rule="nonzero" fill-opacity="1"></path><path clip-path="url(#clip450)" d="M363.835 1454.1 Q360.224 1454.1 358.395 1457.66 Q356.59 1461.2 356.59 1468.33 Q356.59 1475.44 358.395 1479.01 Q360.224 1482.55 363.835 1482.55 Q367.47 1482.55 369.275 1479.01 Q371.104 1475.44 371.104 1468.33 Q371.104 1461.2 369.275 1457.66 Q367.47 1454.1 363.835 1454.1 M363.835 1450.39 Q369.645 1450.39 372.701 1455 Q375.78 1459.58 375.78 1468.33 Q375.78 1477.06 372.701 1481.67 Q369.645 1486.25 363.835 1486.25 Q358.025 1486.25 354.946 1481.67 Q351.891 1477.06 351.891 1468.33 Q351.891 1459.58 354.946 1455 Q358.025 1450.39 363.835 1450.39 Z" fill="#000000" fill-rule="nonzero" fill-opacity="1"></path><path clip-path="url(#clip450)" d="M780.981 1454.1 Q777.369 1454.1 775.541 1457.66 Q773.735 1461.2 773.735 1468.33 Q773.735 1475.44 775.541 1479.01 Q777.369 1482.55 780.981 1482.55 Q784.615 1482.55 786.42 1479.01 Q788.249 1475.44 788.249 1468.33 Q788.249 1461.2 786.42 1457.66 Q784.615 1454.1 780.981 1454.1 M780.981 1450.39 Q786.791 1450.39 789.846 1455 Q792.925 1459.58 792.925 1468.33 Q792.925 1477.06 789.846 1481.67 Q786.791 1486.25 780.981 1486.25 Q775.17 1486.25 772.092 1481.67 Q769.036 1477.06 769.036 1468.33 Q769.036 1459.58 772.092 1455 Q775.17 1450.39 780.981 1450.39 Z" fill="#000000" fill-rule="nonzero" fill-opacity="1"></path><path clip-path="url(#clip450)" d="M801.142 1479.7 L806.027 1479.7 L806.027 1485.58 L801.142 1485.58 L801.142 1479.7 Z" fill="#000000" fill-rule="nonzero" fill-opacity="1"></path><path clip-path="url(#clip450)" d="M820.24 1481.64 L836.559 1481.64 L836.559 1485.58 L814.615 1485.58 L814.615 1481.64 Q817.277 1478.89 821.86 1474.26 Q826.466 1469.61 827.647 1468.27 Q829.892 1465.74 830.772 1464.01 Q831.675 1462.25 831.675 1460.56 Q831.675 1457.8 829.73 1456.07 Q827.809 1454.33 824.707 1454.33 Q822.508 1454.33 820.054 1455.09 Q817.624 1455.86 814.846 1457.41 L814.846 1452.69 Q817.67 1451.55 820.124 1450.97 Q822.578 1450.39 824.615 1450.39 Q829.985 1450.39 833.179 1453.08 Q836.374 1455.77 836.374 1460.26 Q836.374 1462.39 835.564 1464.31 Q834.777 1466.2 832.67 1468.8 Q832.091 1469.47 828.99 1472.69 Q825.888 1475.88 820.24 1481.64 Z" fill="#000000" fill-rule="nonzero" fill-opacity="1"></path><path clip-path="url(#clip450)" d="M846.42 1451.02 L864.776 1451.02 L864.776 1454.96 L850.702 1454.96 L850.702 1463.43 Q851.721 1463.08 852.739 1462.92 Q853.758 1462.73 854.776 1462.73 Q860.563 1462.73 863.943 1465.9 Q867.323 1469.08 867.323 1474.49 Q867.323 1480.07 863.85 1483.17 Q860.378 1486.25 854.059 1486.25 Q851.883 1486.25 849.614 1485.88 Q847.369 1485.51 844.962 1484.77 L844.962 1480.07 Q847.045 1481.2 849.267 1481.76 Q851.489 1482.32 853.966 1482.32 Q857.971 1482.32 860.309 1480.21 Q862.647 1478.1 862.647 1474.49 Q862.647 1470.88 860.309 1468.77 Q857.971 1466.67 853.966 1466.67 Q852.091 1466.67 850.216 1467.08 Q848.364 1467.5 846.42 1468.38 L846.42 1451.02 Z" fill="#000000" fill-rule="nonzero" fill-opacity="1"></path><path clip-path="url(#clip450)" d="M1272.52 1454.1 Q1268.91 1454.1 1267.08 1457.66 Q1265.28 1461.2 1265.28 1468.33 Q1265.28 1475.44 1267.08 1479.01 Q1268.91 1482.55 1272.52 1482.55 Q1276.16 1482.55 1277.96 1479.01 Q1279.79 1475.44 1279.79 1468.33 Q1279.79 1461.2 1277.96 1457.66 Q1276.16 1454.1 1272.52 1454.1 M1272.52 1450.39 Q1278.33 1450.39 1281.39 1455 Q1284.47 1459.58 1284.47 1468.33 Q1284.47 1477.06 1281.39 1481.67 Q1278.33 1486.25 1272.52 1486.25 Q1266.71 1486.25 1263.63 1481.67 Q1260.58 1477.06 1260.58 1468.33 Q1260.58 1459.58 1263.63 1455 Q1266.71 1450.39 1272.52 1450.39 Z" fill="#000000" fill-rule="nonzero" fill-opacity="1"></path><path clip-path="url(#clip450)" d="M1292.69 1479.7 L1297.57 1479.7 L1297.57 1485.58 L1292.69 1485.58 L1292.69 1479.7 Z" fill="#000000" fill-rule="nonzero" fill-opacity="1"></path><path clip-path="url(#clip450)" d="M1307.8 1451.02 L1326.16 1451.02 L1326.16 1454.96 L1312.08 1454.96 L1312.08 1463.43 Q1313.1 1463.08 1314.12 1462.92 Q1315.14 1462.73 1316.16 1462.73 Q1321.94 1462.73 1325.32 1465.9 Q1328.7 1469.08 1328.7 1474.49 Q1328.7 1480.07 1325.23 1483.17 Q1321.76 1486.25 1315.44 1486.25 Q1313.26 1486.25 1311 1485.88 Q1308.75 1485.51 1306.34 1484.77 L1306.34 1480.07 Q1308.43 1481.2 1310.65 1481.76 Q1312.87 1482.32 1315.35 1482.32 Q1319.35 1482.32 1321.69 1480.21 Q1324.03 1478.1 1324.03 1474.49 Q1324.03 1470.88 1321.69 1468.77 Q1319.35 1466.67 1315.35 1466.67 Q1313.47 1466.67 1311.6 1467.08 Q1309.75 1467.5 1307.8 1468.38 L1307.8 1451.02 Z" fill="#000000" fill-rule="nonzero" fill-opacity="1"></path><path clip-path="url(#clip450)" d="M1347.92 1454.1 Q1344.31 1454.1 1342.48 1457.66 Q1340.67 1461.2 1340.67 1468.33 Q1340.67 1475.44 1342.48 1479.01 Q1344.31 1482.55 1347.92 1482.55 Q1351.55 1482.55 1353.36 1479.01 Q1355.19 1475.44 1355.19 1468.33 Q1355.19 1461.2 1353.36 1457.66 Q1351.55 1454.1 1347.92 1454.1 M1347.92 1450.39 Q1353.73 1450.39 1356.78 1455 Q1359.86 1459.58 1359.86 1468.33 Q1359.86 1477.06 1356.78 1481.67 Q1353.73 1486.25 1347.92 1486.25 Q1342.11 1486.25 1339.03 1481.67 Q1335.97 1477.06 1335.97 1468.33 Q1335.97 1459.58 1339.03 1455 Q1342.11 1450.39 1347.92 1450.39 Z" fill="#000000" fill-rule="nonzero" fill-opacity="1"></path><path clip-path="url(#clip450)" d="M1765.06 1454.1 Q1761.45 1454.1 1759.62 1457.66 Q1757.82 1461.2 1757.82 1468.33 Q1757.82 1475.44 1759.62 1479.01 Q1761.45 1482.55 1765.06 1482.55 Q1768.7 1482.55 1770.5 1479.01 Q1772.33 1475.44 1772.33 1468.33 Q1772.33 1461.2 1770.5 1457.66 Q1768.7 1454.1 1765.06 1454.1 M1765.06 1450.39 Q1770.87 1450.39 1773.93 1455 Q1777.01 1459.58 1777.01 1468.33 Q1777.01 1477.06 1773.93 1481.67 Q1770.87 1486.25 1765.06 1486.25 Q1759.25 1486.25 1756.17 1481.67 Q1753.12 1477.06 1753.12 1468.33 Q1753.12 1459.58 1756.17 1455 Q1759.25 1450.39 1765.06 1450.39 Z" fill="#000000" fill-rule="nonzero" fill-opacity="1"></path><path clip-path="url(#clip450)" d="M1785.22 1479.7 L1790.11 1479.7 L1790.11 1485.58 L1785.22 1485.58 L1785.22 1479.7 Z" fill="#000000" fill-rule="nonzero" fill-opacity="1"></path><path clip-path="url(#clip450)" d="M1799.11 1451.02 L1821.33 1451.02 L1821.33 1453.01 L1808.79 1485.58 L1803.9 1485.58 L1815.71 1454.96 L1799.11 1454.96 L1799.11 1451.02 Z" fill="#000000" fill-rule="nonzero" fill-opacity="1"></path><path clip-path="url(#clip450)" d="M1830.5 1451.02 L1848.86 1451.02 L1848.86 1454.96 L1834.78 1454.96 L1834.78 1463.43 Q1835.8 1463.08 1836.82 1462.92 Q1837.84 1462.73 1838.86 1462.73 Q1844.64 1462.73 1848.02 1465.9 Q1851.4 1469.08 1851.4 1474.49 Q1851.4 1480.07 1847.93 1483.17 Q1844.46 1486.25 1838.14 1486.25 Q1835.96 1486.25 1833.7 1485.88 Q1831.45 1485.51 1829.04 1484.77 L1829.04 1480.07 Q1831.13 1481.2 1833.35 1481.76 Q1835.57 1482.32 1838.05 1482.32 Q1842.05 1482.32 1844.39 1480.21 Q1846.73 1478.1 1846.73 1474.49 Q1846.73 1470.88 1844.39 1468.77 Q1842.05 1466.67 1838.05 1466.67 Q1836.17 1466.67 1834.3 1467.08 Q1832.45 1467.5 1830.5 1468.38 L1830.5 1451.02 Z" fill="#000000" fill-rule="nonzero" fill-opacity="1"></path><path clip-path="url(#clip450)" d="M2246.37 1481.64 L2254.01 1481.64 L2254.01 1455.28 L2245.7 1456.95 L2245.7 1452.69 L2253.97 1451.02 L2258.64 1451.02 L2258.64 1481.64 L2266.28 1481.64 L2266.28 1485.58 L2246.37 1485.58 L2246.37 1481.64 Z" fill="#000000" fill-rule="nonzero" fill-opacity="1"></path><path clip-path="url(#clip450)" d="M2275.73 1479.7 L2280.61 1479.7 L2280.61 1485.58 L2275.73 1485.58 L2275.73 1479.7 Z" fill="#000000" fill-rule="nonzero" fill-opacity="1"></path><path clip-path="url(#clip450)" d="M2300.79 1454.1 Q2297.18 1454.1 2295.35 1457.66 Q2293.55 1461.2 2293.55 1468.33 Q2293.55 1475.44 2295.35 1479.01 Q2297.18 1482.55 2300.79 1482.55 Q2304.43 1482.55 2306.23 1479.01 Q2308.06 1475.44 2308.06 1468.33 Q2308.06 1461.2 2306.23 1457.66 Q2304.43 1454.1 2300.79 1454.1 M2300.79 1450.39 Q2306.6 1450.39 2309.66 1455 Q2312.74 1459.58 2312.74 1468.33 Q2312.74 1477.06 2309.66 1481.67 Q2306.6 1486.25 2300.79 1486.25 Q2294.98 1486.25 2291.91 1481.67 Q2288.85 1477.06 2288.85 1468.33 Q2288.85 1459.58 2291.91 1455 Q2294.98 1450.39 2300.79 1450.39 Z" fill="#000000" fill-rule="nonzero" fill-opacity="1"></path><path clip-path="url(#clip450)" d="M2330.96 1454.1 Q2327.35 1454.1 2325.52 1457.66 Q2323.71 1461.2 2323.71 1468.33 Q2323.71 1475.44 2325.52 1479.01 Q2327.35 1482.55 2330.96 1482.55 Q2334.59 1482.55 2336.4 1479.01 Q2338.22 1475.44 2338.22 1468.33 Q2338.22 1461.2 2336.4 1457.66 Q2334.59 1454.1 2330.96 1454.1 M2330.96 1450.39 Q2336.77 1450.39 2339.82 1455 Q2342.9 1459.58 2342.9 1468.33 Q2342.9 1477.06 2339.82 1481.67 Q2336.77 1486.25 2330.96 1486.25 Q2325.15 1486.25 2322.07 1481.67 Q2319.01 1477.06 2319.01 1468.33 Q2319.01 1459.58 2322.07 1455 Q2325.15 1450.39 2330.96 1450.39 Z" fill="#000000" fill-rule="nonzero" fill-opacity="1"></path><path clip-path="url(#clip450)" d="M1299.96 1520.52 L1340.16 1520.52 L1340.16 1525.93 L1323.29 1525.93 L1323.29 1568.04 L1316.83 1568.04 L1316.83 1525.93 L1299.96 1525.93 L1299.96 1520.52 Z" fill="#000000" fill-rule="nonzero" fill-opacity="1"></path><polyline clip-path="url(#clip450)" style="stroke:#000000; stroke-linecap:round; stroke-linejoin:round; stroke-width:4; stroke-opacity:1; fill:none" points="287.366,1423.18 287.366,47.2441 "></polyline>
<polyline clip-path="url(#clip450)" style="stroke:#000000; stroke-linecap:round; stroke-linejoin:round; stroke-width:4; stroke-opacity:1; fill:none" points="287.366,1355.1 306.264,1355.1 "></polyline>
<polyline clip-path="url(#clip450)" style="stroke:#000000; stroke-linecap:round; stroke-linejoin:round; stroke-width:4; stroke-opacity:1; fill:none" points="287.366,1037.28 306.264,1037.28 "></polyline>
<polyline clip-path="url(#clip450)" style="stroke:#000000; stroke-linecap:round; stroke-linejoin:round; stroke-width:4; stroke-opacity:1; fill:none" points="287.366,719.456 306.264,719.456 "></polyline>
<polyline clip-path="url(#clip450)" style="stroke:#000000; stroke-linecap:round; stroke-linejoin:round; stroke-width:4; stroke-opacity:1; fill:none" points="287.366,401.635 306.264,401.635 "></polyline>
<polyline clip-path="url(#clip450)" style="stroke:#000000; stroke-linecap:round; stroke-linejoin:round; stroke-width:4; stroke-opacity:1; fill:none" points="287.366,83.8138 306.264,83.8138 "></polyline>
<path clip-path="url(#clip450)" d="M114.26 1355.55 L143.936 1355.55 L143.936 1359.48 L114.26 1359.48 L114.26 1355.55 Z" fill="#000000" fill-rule="nonzero" fill-opacity="1"></path><path clip-path="url(#clip450)" d="M164.028 1340.9 Q160.417 1340.9 158.589 1344.46 Q156.783 1348 156.783 1355.13 Q156.783 1362.24 158.589 1365.8 Q160.417 1369.35 164.028 1369.35 Q167.663 1369.35 169.468 1365.8 Q171.297 1362.24 171.297 1355.13 Q171.297 1348 169.468 1344.46 Q167.663 1340.9 164.028 1340.9 M164.028 1337.19 Q169.839 1337.19 172.894 1341.8 Q175.973 1346.38 175.973 1355.13 Q175.973 1363.86 172.894 1368.47 Q169.839 1373.05 164.028 1373.05 Q158.218 1373.05 155.14 1368.47 Q152.084 1363.86 152.084 1355.13 Q152.084 1346.38 155.14 1341.8 Q158.218 1337.19 164.028 1337.19 Z" fill="#000000" fill-rule="nonzero" fill-opacity="1"></path><path clip-path="url(#clip450)" d="M184.19 1366.5 L189.075 1366.5 L189.075 1372.38 L184.19 1372.38 L184.19 1366.5 Z" fill="#000000" fill-rule="nonzero" fill-opacity="1"></path><path clip-path="url(#clip450)" d="M212.107 1341.89 L200.301 1360.34 L212.107 1360.34 L212.107 1341.89 M210.88 1337.82 L216.76 1337.82 L216.76 1360.34 L221.69 1360.34 L221.69 1364.23 L216.76 1364.23 L216.76 1372.38 L212.107 1372.38 L212.107 1364.23 L196.505 1364.23 L196.505 1359.72 L210.88 1337.82 Z" fill="#000000" fill-rule="nonzero" fill-opacity="1"></path><path clip-path="url(#clip450)" d="M239.422 1340.9 Q235.81 1340.9 233.982 1344.46 Q232.176 1348 232.176 1355.13 Q232.176 1362.24 233.982 1365.8 Q235.81 1369.35 239.422 1369.35 Q243.056 1369.35 244.861 1365.8 Q246.69 1362.24 246.69 1355.13 Q246.69 1348 244.861 1344.46 Q243.056 1340.9 239.422 1340.9 M239.422 1337.19 Q245.232 1337.19 248.287 1341.8 Q251.366 1346.38 251.366 1355.13 Q251.366 1363.86 248.287 1368.47 Q245.232 1373.05 239.422 1373.05 Q233.611 1373.05 230.533 1368.47 Q227.477 1363.86 227.477 1355.13 Q227.477 1346.38 230.533 1341.8 Q233.611 1337.19 239.422 1337.19 Z" fill="#000000" fill-rule="nonzero" fill-opacity="1"></path><path clip-path="url(#clip450)" d="M115.256 1037.73 L144.931 1037.73 L144.931 1041.66 L115.256 1041.66 L115.256 1037.73 Z" fill="#000000" fill-rule="nonzero" fill-opacity="1"></path><path clip-path="url(#clip450)" d="M165.024 1023.08 Q161.413 1023.08 159.584 1026.64 Q157.778 1030.18 157.778 1037.31 Q157.778 1044.42 159.584 1047.98 Q161.413 1051.52 165.024 1051.52 Q168.658 1051.52 170.464 1047.98 Q172.292 1044.42 172.292 1037.31 Q172.292 1030.18 170.464 1026.64 Q168.658 1023.08 165.024 1023.08 M165.024 1019.37 Q170.834 1019.37 173.889 1023.98 Q176.968 1028.56 176.968 1037.31 Q176.968 1046.04 173.889 1050.64 Q170.834 1055.23 165.024 1055.23 Q159.214 1055.23 156.135 1050.64 Q153.079 1046.04 153.079 1037.31 Q153.079 1028.56 156.135 1023.98 Q159.214 1019.37 165.024 1019.37 Z" fill="#000000" fill-rule="nonzero" fill-opacity="1"></path><path clip-path="url(#clip450)" d="M185.186 1048.68 L190.07 1048.68 L190.07 1054.56 L185.186 1054.56 L185.186 1048.68 Z" fill="#000000" fill-rule="nonzero" fill-opacity="1"></path><path clip-path="url(#clip450)" d="M214.422 1035.92 Q217.778 1036.64 219.653 1038.91 Q221.551 1041.18 221.551 1044.51 Q221.551 1049.63 218.033 1052.43 Q214.514 1055.23 208.033 1055.23 Q205.857 1055.23 203.542 1054.79 Q201.25 1054.37 198.797 1053.52 L198.797 1049 Q200.741 1050.14 203.056 1050.71 Q205.371 1051.29 207.894 1051.29 Q212.292 1051.29 214.584 1049.56 Q216.898 1047.82 216.898 1044.51 Q216.898 1041.46 214.746 1039.74 Q212.616 1038.01 208.797 1038.01 L204.769 1038.01 L204.769 1034.16 L208.982 1034.16 Q212.431 1034.16 214.26 1032.8 Q216.088 1031.41 216.088 1028.82 Q216.088 1026.15 214.19 1024.74 Q212.315 1023.31 208.797 1023.31 Q206.875 1023.31 204.676 1023.72 Q202.477 1024.14 199.838 1025.02 L199.838 1020.85 Q202.5 1020.11 204.815 1019.74 Q207.153 1019.37 209.213 1019.37 Q214.537 1019.37 217.639 1021.8 Q220.741 1024.21 220.741 1028.33 Q220.741 1031.2 219.098 1033.19 Q217.454 1035.16 214.422 1035.92 Z" fill="#000000" fill-rule="nonzero" fill-opacity="1"></path><path clip-path="url(#clip450)" d="M230.463 1020 L248.82 1020 L248.82 1023.93 L234.746 1023.93 L234.746 1032.4 Q235.764 1032.06 236.783 1031.89 Q237.801 1031.71 238.82 1031.71 Q244.607 1031.71 247.986 1034.88 Q251.366 1038.05 251.366 1043.47 Q251.366 1049.05 247.894 1052.15 Q244.421 1055.23 238.102 1055.23 Q235.926 1055.23 233.658 1054.86 Q231.412 1054.49 229.005 1053.75 L229.005 1049.05 Q231.088 1050.18 233.31 1050.74 Q235.533 1051.29 238.009 1051.29 Q242.014 1051.29 244.352 1049.19 Q246.69 1047.08 246.69 1043.47 Q246.69 1039.86 244.352 1037.75 Q242.014 1035.64 238.009 1035.64 Q236.135 1035.64 234.26 1036.06 Q232.408 1036.48 230.463 1037.36 L230.463 1020 Z" fill="#000000" fill-rule="nonzero" fill-opacity="1"></path><path clip-path="url(#clip450)" d="M114.26 719.907 L143.936 719.907 L143.936 723.842 L114.26 723.842 L114.26 719.907 Z" fill="#000000" fill-rule="nonzero" fill-opacity="1"></path><path clip-path="url(#clip450)" d="M164.028 705.255 Q160.417 705.255 158.589 708.819 Q156.783 712.361 156.783 719.491 Q156.783 726.597 158.589 730.162 Q160.417 733.703 164.028 733.703 Q167.663 733.703 169.468 730.162 Q171.297 726.597 171.297 719.491 Q171.297 712.361 169.468 708.819 Q167.663 705.255 164.028 705.255 M164.028 701.551 Q169.839 701.551 172.894 706.157 Q175.973 710.741 175.973 719.491 Q175.973 728.217 172.894 732.824 Q169.839 737.407 164.028 737.407 Q158.218 737.407 155.14 732.824 Q152.084 728.217 152.084 719.491 Q152.084 710.741 155.14 706.157 Q158.218 701.551 164.028 701.551 Z" fill="#000000" fill-rule="nonzero" fill-opacity="1"></path><path clip-path="url(#clip450)" d="M184.19 730.856 L189.075 730.856 L189.075 736.736 L184.19 736.736 L184.19 730.856 Z" fill="#000000" fill-rule="nonzero" fill-opacity="1"></path><path clip-path="url(#clip450)" d="M213.426 718.102 Q216.783 718.819 218.658 721.088 Q220.556 723.356 220.556 726.69 Q220.556 731.805 217.037 734.606 Q213.519 737.407 207.037 737.407 Q204.862 737.407 202.547 736.967 Q200.255 736.551 197.801 735.694 L197.801 731.18 Q199.746 732.315 202.061 732.893 Q204.375 733.472 206.899 733.472 Q211.297 733.472 213.588 731.736 Q215.903 730 215.903 726.69 Q215.903 723.634 213.75 721.921 Q211.621 720.185 207.801 720.185 L203.774 720.185 L203.774 716.342 L207.987 716.342 Q211.436 716.342 213.264 714.977 Q215.093 713.588 215.093 710.995 Q215.093 708.333 213.195 706.921 Q211.32 705.486 207.801 705.486 Q205.88 705.486 203.681 705.903 Q201.482 706.319 198.843 707.199 L198.843 703.032 Q201.505 702.292 203.82 701.921 Q206.158 701.551 208.218 701.551 Q213.542 701.551 216.644 703.981 Q219.746 706.389 219.746 710.509 Q219.746 713.379 218.102 715.37 Q216.459 717.338 213.426 718.102 Z" fill="#000000" fill-rule="nonzero" fill-opacity="1"></path><path clip-path="url(#clip450)" d="M239.422 705.255 Q235.81 705.255 233.982 708.819 Q232.176 712.361 232.176 719.491 Q232.176 726.597 233.982 730.162 Q235.81 733.703 239.422 733.703 Q243.056 733.703 244.861 730.162 Q246.69 726.597 246.69 719.491 Q246.69 712.361 244.861 708.819 Q243.056 705.255 239.422 705.255 M239.422 701.551 Q245.232 701.551 248.287 706.157 Q251.366 710.741 251.366 719.491 Q251.366 728.217 248.287 732.824 Q245.232 737.407 239.422 737.407 Q233.611 737.407 230.533 732.824 Q227.477 728.217 227.477 719.491 Q227.477 710.741 230.533 706.157 Q233.611 701.551 239.422 701.551 Z" fill="#000000" fill-rule="nonzero" fill-opacity="1"></path><path clip-path="url(#clip450)" d="M115.256 402.086 L144.931 402.086 L144.931 406.021 L115.256 406.021 L115.256 402.086 Z" fill="#000000" fill-rule="nonzero" fill-opacity="1"></path><path clip-path="url(#clip450)" d="M165.024 387.434 Q161.413 387.434 159.584 390.998 Q157.778 394.54 157.778 401.67 Q157.778 408.776 159.584 412.341 Q161.413 415.882 165.024 415.882 Q168.658 415.882 170.464 412.341 Q172.292 408.776 172.292 401.67 Q172.292 394.54 170.464 390.998 Q168.658 387.434 165.024 387.434 M165.024 383.73 Q170.834 383.73 173.889 388.336 Q176.968 392.92 176.968 401.67 Q176.968 410.396 173.889 415.003 Q170.834 419.586 165.024 419.586 Q159.214 419.586 156.135 415.003 Q153.079 410.396 153.079 401.67 Q153.079 392.92 156.135 388.336 Q159.214 383.73 165.024 383.73 Z" fill="#000000" fill-rule="nonzero" fill-opacity="1"></path><path clip-path="url(#clip450)" d="M185.186 413.035 L190.07 413.035 L190.07 418.915 L185.186 418.915 L185.186 413.035 Z" fill="#000000" fill-rule="nonzero" fill-opacity="1"></path><path clip-path="url(#clip450)" d="M204.283 414.98 L220.602 414.98 L220.602 418.915 L198.658 418.915 L198.658 414.98 Q201.32 412.225 205.903 407.595 Q210.51 402.943 211.69 401.6 Q213.936 399.077 214.815 397.341 Q215.718 395.582 215.718 393.892 Q215.718 391.137 213.774 389.401 Q211.852 387.665 208.75 387.665 Q206.551 387.665 204.098 388.429 Q201.667 389.193 198.889 390.744 L198.889 386.021 Q201.713 384.887 204.167 384.309 Q206.621 383.73 208.658 383.73 Q214.028 383.73 217.223 386.415 Q220.417 389.1 220.417 393.591 Q220.417 395.72 219.607 397.642 Q218.82 399.54 216.713 402.132 Q216.135 402.804 213.033 406.021 Q209.931 409.216 204.283 414.98 Z" fill="#000000" fill-rule="nonzero" fill-opacity="1"></path><path clip-path="url(#clip450)" d="M230.463 384.355 L248.82 384.355 L248.82 388.29 L234.746 388.29 L234.746 396.762 Q235.764 396.415 236.783 396.253 Q237.801 396.068 238.82 396.068 Q244.607 396.068 247.986 399.239 Q251.366 402.41 251.366 407.827 Q251.366 413.406 247.894 416.507 Q244.421 419.586 238.102 419.586 Q235.926 419.586 233.658 419.216 Q231.412 418.845 229.005 418.105 L229.005 413.406 Q231.088 414.54 233.31 415.095 Q235.533 415.651 238.009 415.651 Q242.014 415.651 244.352 413.544 Q246.69 411.438 246.69 407.827 Q246.69 404.216 244.352 402.109 Q242.014 400.003 238.009 400.003 Q236.135 400.003 234.26 400.42 Q232.408 400.836 230.463 401.716 L230.463 384.355 Z" fill="#000000" fill-rule="nonzero" fill-opacity="1"></path><path clip-path="url(#clip450)" d="M114.26 84.2652 L143.936 84.2652 L143.936 88.2003 L114.26 88.2003 L114.26 84.2652 Z" fill="#000000" fill-rule="nonzero" fill-opacity="1"></path><path clip-path="url(#clip450)" d="M164.028 69.6125 Q160.417 69.6125 158.589 73.1773 Q156.783 76.7189 156.783 83.8485 Q156.783 90.955 158.589 94.5197 Q160.417 98.0614 164.028 98.0614 Q167.663 98.0614 169.468 94.5197 Q171.297 90.955 171.297 83.8485 Q171.297 76.7189 169.468 73.1773 Q167.663 69.6125 164.028 69.6125 M164.028 65.9088 Q169.839 65.9088 172.894 70.5152 Q175.973 75.0986 175.973 83.8485 Q175.973 92.5753 172.894 97.1818 Q169.839 101.765 164.028 101.765 Q158.218 101.765 155.14 97.1818 Q152.084 92.5753 152.084 83.8485 Q152.084 75.0986 155.14 70.5152 Q158.218 65.9088 164.028 65.9088 Z" fill="#000000" fill-rule="nonzero" fill-opacity="1"></path><path clip-path="url(#clip450)" d="M184.19 95.2142 L189.075 95.2142 L189.075 101.094 L184.19 101.094 L184.19 95.2142 Z" fill="#000000" fill-rule="nonzero" fill-opacity="1"></path><path clip-path="url(#clip450)" d="M203.287 97.1586 L219.607 97.1586 L219.607 101.094 L197.662 101.094 L197.662 97.1586 Q200.325 94.404 204.908 89.7744 Q209.514 85.1216 210.695 83.7791 Q212.94 81.2559 213.82 79.5198 Q214.723 77.7606 214.723 76.0708 Q214.723 73.3162 212.778 71.5801 Q210.857 69.844 207.755 69.844 Q205.556 69.844 203.102 70.6078 Q200.672 71.3717 197.894 72.9226 L197.894 68.2004 Q200.718 67.0662 203.172 66.4875 Q205.625 65.9088 207.662 65.9088 Q213.033 65.9088 216.227 68.594 Q219.422 71.2791 219.422 75.7698 Q219.422 77.8995 218.611 79.8208 Q217.824 81.7189 215.718 84.3115 Q215.139 84.9828 212.037 88.2003 Q208.936 91.3948 203.287 97.1586 Z" fill="#000000" fill-rule="nonzero" fill-opacity="1"></path><path clip-path="url(#clip450)" d="M239.422 69.6125 Q235.81 69.6125 233.982 73.1773 Q232.176 76.7189 232.176 83.8485 Q232.176 90.955 233.982 94.5197 Q235.81 98.0614 239.422 98.0614 Q243.056 98.0614 244.861 94.5197 Q246.69 90.955 246.69 83.8485 Q246.69 76.7189 244.861 73.1773 Q243.056 69.6125 239.422 69.6125 M239.422 65.9088 Q245.232 65.9088 248.287 70.5152 Q251.366 75.0986 251.366 83.8485 Q251.366 92.5753 248.287 97.1818 Q245.232 101.765 239.422 101.765 Q233.611 101.765 230.533 97.1818 Q227.477 92.5753 227.477 83.8485 Q227.477 75.0986 230.533 70.5152 Q233.611 65.9088 239.422 65.9088 Z" fill="#000000" fill-rule="nonzero" fill-opacity="1"></path><path clip-path="url(#clip450)" d="M16.4842 793.299 L16.4842 765.99 L21.895 765.99 L21.895 786.87 L35.8996 786.87 L35.8996 768.027 L41.3104 768.027 L41.3104 786.87 L64.0042 786.87 L64.0042 793.299 L16.4842 793.299 Z" fill="#000000" fill-rule="nonzero" fill-opacity="1"></path><path clip-path="url(#clip450)" d="M14.5426 741.991 Q21.8632 746.256 29.0246 748.325 Q36.186 750.394 43.5384 750.394 Q50.8908 750.394 58.1159 748.325 Q65.3091 746.225 72.5979 741.991 L72.5979 747.084 Q65.1182 751.858 57.8931 754.245 Q50.668 756.601 43.5384 756.601 Q36.4406 756.601 29.2474 754.245 Q22.0542 751.89 14.5426 747.084 L14.5426 741.991 Z" fill="#000000" fill-rule="nonzero" fill-opacity="1"></path><path clip-path="url(#clip450)" d="M16.4842 736.963 L16.4842 696.763 L21.895 696.763 L21.895 713.632 L64.0042 713.632 L64.0042 720.093 L21.895 720.093 L21.895 736.963 L16.4842 736.963 Z" fill="#000000" fill-rule="nonzero" fill-opacity="1"></path><path clip-path="url(#clip450)" d="M14.5426 691.734 L14.5426 686.642 Q22.0542 681.867 29.2474 679.512 Q36.4406 677.125 43.5384 677.125 Q50.668 677.125 57.8931 679.512 Q65.1182 681.867 72.5979 686.642 L72.5979 691.734 Q65.3091 687.501 58.1159 685.432 Q50.8908 683.331 43.5384 683.331 Q36.186 683.331 29.0246 685.432 Q21.8632 687.501 14.5426 691.734 Z" fill="#000000" fill-rule="nonzero" fill-opacity="1"></path><polyline clip-path="url(#clip452)" style="stroke:#009af9; stroke-linecap:round; stroke-linejoin:round; stroke-width:4; stroke-opacity:1; fill:none" points="345.82,86.1857 365.502,123.393 385.184,136.889 404.865,144.469 424.547,149.842 444.228,154.265 463.91,158.284 483.592,162.17 503.273,166.077 522.955,170.094 542.637,174.281 562.318,178.675 582,183.302 601.681,188.18 621.363,193.321 641.045,198.735 660.726,204.427 680.408,210.402 700.09,216.663 719.771,223.21 739.453,230.045 759.135,237.168 778.816,244.576 798.498,252.269 818.179,260.245 837.861,268.501 857.543,277.035 877.224,285.844 896.906,294.923 916.588,304.271 936.269,313.882 955.951,323.752 975.632,333.879 995.314,344.256 1015,354.88 1034.68,365.747 1054.36,376.852 1074.04,388.189 1093.72,399.756 1113.4,411.546 1133.09,423.555 1152.77,435.779 1172.45,448.213 1192.13,460.852 1211.81,473.692 1231.49,486.727 1251.18,499.955 1270.86,513.369 1290.54,526.966 1310.22,540.741 1329.9,554.691 1349.58,568.81 1369.26,583.095 1388.95,597.542 1408.63,612.147 1428.31,626.905 1447.99,641.814 1467.67,656.869 1487.35,672.066 1507.04,687.403 1526.72,702.876 1546.4,718.481 1566.08,734.215 1585.76,750.074 1605.44,766.057 1625.13,782.159 1644.81,798.377 1664.49,814.709 1684.17,831.152 1703.85,847.704 1723.53,864.36 1743.22,881.12 1762.9,897.979 1782.58,914.936 1802.26,931.989 1821.94,949.135 1841.62,966.371 1861.31,983.696 1880.99,1001.11 1900.67,1018.6 1920.35,1036.18 1940.03,1053.84 1959.71,1071.58 1979.4,1089.39 1999.08,1107.28 2018.76,1125.24 2038.44,1143.27 2058.12,1161.37 2077.8,1179.54 2097.49,1197.77 2117.17,1216.07 2136.85,1234.43 2156.53,1252.86 2176.21,1271.34 2195.89,1289.89 2215.57,1308.49 2235.26,1327.15 2254.94,1345.86 2274.62,1364.63 2294.3,1383.44 "></polyline>
<polyline clip-path="url(#clip452)" style="stroke:#e26f46; stroke-linecap:round; stroke-linejoin:round; stroke-width:4; stroke-opacity:1; fill:none" points="345.82,161.57 365.502,162.069 385.184,162.901 404.865,164.065 424.547,165.561 444.228,167.389 463.91,169.547 483.592,172.035 503.273,174.852 522.955,177.997 542.637,181.469 562.318,185.268 582,189.391 601.681,193.836 621.363,198.602 641.045,203.686 660.726,209.087 680.408,214.804 700.09,220.833 719.771,227.172 739.453,233.819 759.135,240.77 778.816,248.022 798.498,255.572 818.179,263.416 837.861,271.551 857.543,279.972 877.224,288.676 896.906,297.658 916.588,306.914 936.269,316.44 955.951,326.231 975.632,336.282 995.314,346.589 1015,357.147 1034.68,367.951 1054.36,378.996 1074.04,390.277 1093.72,401.79 1113.4,413.53 1133.09,425.491 1152.77,437.669 1172.45,450.059 1192.13,462.656 1211.81,475.455 1231.49,488.453 1251.18,501.643 1270.86,515.022 1290.54,528.586 1310.22,542.329 1329.9,556.247 1349.58,570.337 1369.26,584.593 1388.95,599.012 1408.63,613.59 1428.31,628.323 1447.99,643.206 1467.67,658.237 1487.35,673.412 1507.04,688.726 1526.72,704.177 1546.4,719.761 1566.08,735.475 1585.76,751.315 1605.44,767.278 1625.13,783.362 1644.81,799.562 1664.49,815.877 1684.17,832.303 1703.85,848.838 1723.53,865.478 1743.22,882.222 1762.9,899.067 1782.58,916.009 1802.26,933.048 1821.94,950.18 1841.62,967.403 1861.31,984.714 1880.99,1002.11 1900.67,1019.6 1920.35,1037.16 1940.03,1054.81 1959.71,1072.53 1979.4,1090.33 1999.08,1108.21 2018.76,1126.16 2038.44,1144.18 2058.12,1162.27 2077.8,1180.43 2097.49,1198.65 2117.17,1216.94 2136.85,1235.3 2156.53,1253.71 2176.21,1272.19 2195.89,1290.72 2215.57,1309.32 2235.26,1327.96 2254.94,1346.67 2274.62,1365.43 2294.3,1384.24 "></polyline>
<path clip-path="url(#clip450)" d="M1586.89 248.629 L2283.91 248.629 L2283.91 93.1086 L1586.89 93.1086  Z" fill="#ffffff" fill-rule="evenodd" fill-opacity="1"></path>
<polyline clip-path="url(#clip450)" style="stroke:#000000; stroke-linecap:round; stroke-linejoin:round; stroke-width:4; stroke-opacity:1; fill:none" points="1586.89,248.629 2283.91,248.629 2283.91,93.1086 1586.89,93.1086 1586.89,248.629 "></polyline>
<polyline clip-path="url(#clip450)" style="stroke:#009af9; stroke-linecap:round; stroke-linejoin:round; stroke-width:4; stroke-opacity:1; fill:none" points="1609.84,144.949 1747.53,144.949 "></polyline>
<path clip-path="url(#clip450)" d="M1777.58 127.669 L1782.26 127.669 L1782.26 159.821 Q1782.26 166.071 1779.88 168.895 Q1777.51 171.719 1772.26 171.719 L1770.48 171.719 L1770.48 167.784 L1771.94 167.784 Q1775.04 167.784 1776.31 166.048 Q1777.58 164.312 1777.58 159.821 L1777.58 127.669 Z" fill="#000000" fill-rule="nonzero" fill-opacity="1"></path><path clip-path="url(#clip450)" d="M1807 140.701 L1836.68 140.701 L1836.68 144.59 L1807 144.59 L1807 140.701 M1807 150.145 L1836.68 150.145 L1836.68 154.081 L1807 154.081 L1807 150.145 Z" fill="#000000" fill-rule="nonzero" fill-opacity="1"></path><path clip-path="url(#clip450)" d="M1862.65 158.293 L1870.29 158.293 L1870.29 131.928 L1861.98 133.595 L1861.98 129.335 L1870.25 127.669 L1874.92 127.669 L1874.92 158.293 L1882.56 158.293 L1882.56 162.229 L1862.65 162.229 L1862.65 158.293 Z" fill="#000000" fill-rule="nonzero" fill-opacity="1"></path><path clip-path="url(#clip450)" d="M1892.49 156.349 L1897.37 156.349 L1897.37 160.33 L1893.58 167.738 L1890.59 167.738 L1892.49 160.33 L1892.49 156.349 Z" fill="#000000" fill-rule="nonzero" fill-opacity="1"></path><path clip-path="url(#clip450)" d="M1924.09 149.289 Q1924.09 153.988 1926.01 156.673 Q1927.95 159.335 1931.33 159.335 Q1934.71 159.335 1936.66 156.673 Q1938.6 153.988 1938.6 149.289 Q1938.6 144.59 1936.66 141.928 Q1934.71 139.243 1931.33 139.243 Q1927.95 139.243 1926.01 141.928 Q1924.09 144.59 1924.09 149.289 M1938.6 158.34 Q1937.26 160.655 1935.2 161.789 Q1933.16 162.9 1930.29 162.9 Q1925.59 162.9 1922.63 159.15 Q1919.69 155.4 1919.69 149.289 Q1919.69 143.178 1922.63 139.428 Q1925.59 135.678 1930.29 135.678 Q1933.16 135.678 1935.2 136.812 Q1937.26 137.923 1938.6 140.238 L1938.6 136.303 L1942.86 136.303 L1942.86 172.09 L1938.6 172.09 L1938.6 158.34 Z" fill="#000000" fill-rule="nonzero" fill-opacity="1"></path><path clip-path="url(#clip450)" d="M1967.26 140.701 L1996.93 140.701 L1996.93 144.59 L1967.26 144.59 L1967.26 140.701 M1967.26 150.145 L1996.93 150.145 L1996.93 154.081 L1967.26 154.081 L1967.26 150.145 Z" fill="#000000" fill-rule="nonzero" fill-opacity="1"></path><path clip-path="url(#clip450)" d="M2026.12 158.293 L2042.44 158.293 L2042.44 162.229 L2020.5 162.229 L2020.5 158.293 Q2023.16 155.539 2027.74 150.909 Q2032.35 146.256 2033.53 144.914 Q2035.78 142.391 2036.66 140.655 Q2037.56 138.895 2037.56 137.206 Q2037.56 134.451 2035.61 132.715 Q2033.69 130.979 2030.59 130.979 Q2028.39 130.979 2025.94 131.743 Q2023.51 132.507 2020.73 134.057 L2020.73 129.335 Q2023.55 128.201 2026.01 127.622 Q2028.46 127.044 2030.5 127.044 Q2035.87 127.044 2039.06 129.729 Q2042.26 132.414 2042.26 136.905 Q2042.26 139.034 2041.45 140.956 Q2040.66 142.854 2038.55 145.446 Q2037.98 146.118 2034.87 149.335 Q2031.77 152.53 2026.12 158.293 Z" fill="#000000" fill-rule="nonzero" fill-opacity="1"></path><path clip-path="url(#clip450)" d="M2052.74 156.349 L2057.63 156.349 L2057.63 160.33 L2053.83 167.738 L2050.85 167.738 L2052.74 160.33 L2052.74 156.349 Z" fill="#000000" fill-rule="nonzero" fill-opacity="1"></path><path clip-path="url(#clip450)" d="M2081.98 127.669 L2086.66 127.669 L2086.66 158.293 L2103.48 158.293 L2103.48 162.229 L2081.98 162.229 L2081.98 127.669 Z" fill="#000000" fill-rule="nonzero" fill-opacity="1"></path><path clip-path="url(#clip450)" d="M2108.76 140.701 L2138.44 140.701 L2138.44 144.59 L2108.76 144.59 L2108.76 140.701 M2108.76 150.145 L2138.44 150.145 L2138.44 154.081 L2108.76 154.081 L2108.76 150.145 Z" fill="#000000" fill-rule="nonzero" fill-opacity="1"></path><path clip-path="url(#clip450)" d="M2152.56 158.293 L2168.88 158.293 L2168.88 162.229 L2146.93 162.229 L2146.93 158.293 Q2149.6 155.539 2154.18 150.909 Q2158.79 146.256 2159.97 144.914 Q2162.21 142.391 2163.09 140.655 Q2163.99 138.895 2163.99 137.206 Q2163.99 134.451 2162.05 132.715 Q2160.13 130.979 2157.03 130.979 Q2154.83 130.979 2152.37 131.743 Q2149.94 132.507 2147.17 134.057 L2147.17 129.335 Q2149.99 128.201 2152.44 127.622 Q2154.9 127.044 2156.93 127.044 Q2162.3 127.044 2165.5 129.729 Q2168.69 132.414 2168.69 136.905 Q2168.69 139.034 2167.88 140.956 Q2167.1 142.854 2164.99 145.446 Q2164.41 146.118 2161.31 149.335 Q2158.21 152.53 2152.56 158.293 Z" fill="#000000" fill-rule="nonzero" fill-opacity="1"></path><path clip-path="url(#clip450)" d="M2188.69 130.747 Q2185.08 130.747 2183.25 134.312 Q2181.45 137.854 2181.45 144.983 Q2181.45 152.09 2183.25 155.655 Q2185.08 159.196 2188.69 159.196 Q2192.33 159.196 2194.13 155.655 Q2195.96 152.09 2195.96 144.983 Q2195.96 137.854 2194.13 134.312 Q2192.33 130.747 2188.69 130.747 M2188.69 127.044 Q2194.5 127.044 2197.56 131.65 Q2200.64 136.233 2200.64 144.983 Q2200.64 153.71 2197.56 158.317 Q2194.5 162.9 2188.69 162.9 Q2182.88 162.9 2179.8 158.317 Q2176.75 153.71 2176.75 144.983 Q2176.75 136.233 2179.8 131.65 Q2182.88 127.044 2188.69 127.044 Z" fill="#000000" fill-rule="nonzero" fill-opacity="1"></path><path clip-path="url(#clip450)" d="M2218.85 130.747 Q2215.24 130.747 2213.41 134.312 Q2211.61 137.854 2211.61 144.983 Q2211.61 152.09 2213.41 155.655 Q2215.24 159.196 2218.85 159.196 Q2222.49 159.196 2224.29 155.655 Q2226.12 152.09 2226.12 144.983 Q2226.12 137.854 2224.29 134.312 Q2222.49 130.747 2218.85 130.747 M2218.85 127.044 Q2224.66 127.044 2227.72 131.65 Q2230.8 136.233 2230.8 144.983 Q2230.8 153.71 2227.72 158.317 Q2224.66 162.9 2218.85 162.9 Q2213.04 162.9 2209.97 158.317 Q2206.91 153.71 2206.91 144.983 Q2206.91 136.233 2209.97 131.65 Q2213.04 127.044 2218.85 127.044 Z" fill="#000000" fill-rule="nonzero" fill-opacity="1"></path><path clip-path="url(#clip450)" d="M2249.02 130.747 Q2245.41 130.747 2243.58 134.312 Q2241.77 137.854 2241.77 144.983 Q2241.77 152.09 2243.58 155.655 Q2245.41 159.196 2249.02 159.196 Q2252.65 159.196 2254.46 155.655 Q2256.28 152.09 2256.28 144.983 Q2256.28 137.854 2254.46 134.312 Q2252.65 130.747 2249.02 130.747 M2249.02 127.044 Q2254.83 127.044 2257.88 131.65 Q2260.96 136.233 2260.96 144.983 Q2260.96 153.71 2257.88 158.317 Q2254.83 162.9 2249.02 162.9 Q2243.21 162.9 2240.13 158.317 Q2237.07 153.71 2237.07 144.983 Q2237.07 136.233 2240.13 131.65 Q2243.21 127.044 2249.02 127.044 Z" fill="#000000" fill-rule="nonzero" fill-opacity="1"></path><polyline clip-path="url(#clip450)" style="stroke:#e26f46; stroke-linecap:round; stroke-linejoin:round; stroke-width:4; stroke-opacity:1; fill:none" points="1609.84,196.789 1747.53,196.789 "></polyline>
<path clip-path="url(#clip450)" d="M1794.5 200.041 L1794.5 202.124 L1774.92 202.124 Q1775.2 206.522 1777.56 208.837 Q1779.94 211.129 1784.18 211.129 Q1786.63 211.129 1788.93 210.527 Q1791.24 209.925 1793.51 208.721 L1793.51 212.749 Q1791.22 213.721 1788.81 214.231 Q1786.4 214.74 1783.93 214.74 Q1777.72 214.74 1774.09 211.129 Q1770.48 207.518 1770.48 201.36 Q1770.48 194.995 1773.9 191.268 Q1777.35 187.518 1783.19 187.518 Q1788.42 187.518 1791.45 190.897 Q1794.5 194.254 1794.5 200.041 M1790.25 198.791 Q1790.2 195.296 1788.28 193.212 Q1786.38 191.129 1783.23 191.129 Q1779.67 191.129 1777.51 193.143 Q1775.38 195.157 1775.06 198.814 L1790.25 198.791 Z" fill="#000000" fill-rule="nonzero" fill-opacity="1"></path><path clip-path="url(#clip450)" d="M1822.21 188.143 L1812.84 200.759 L1822.7 214.069 L1817.68 214.069 L1810.13 203.883 L1802.58 214.069 L1797.56 214.069 L1807.63 200.504 L1798.42 188.143 L1803.44 188.143 L1810.32 197.379 L1817.19 188.143 L1822.21 188.143 Z" fill="#000000" fill-rule="nonzero" fill-opacity="1"></path><path clip-path="url(#clip450)" d="M1832.84 210.18 L1832.84 223.93 L1828.56 223.93 L1828.56 188.143 L1832.84 188.143 L1832.84 192.078 Q1834.18 189.763 1836.22 188.652 Q1838.28 187.518 1841.13 187.518 Q1845.85 187.518 1848.79 191.268 Q1851.75 195.018 1851.75 201.129 Q1851.75 207.24 1848.79 210.99 Q1845.85 214.74 1841.13 214.74 Q1838.28 214.74 1836.22 213.629 Q1834.18 212.495 1832.84 210.18 M1847.33 201.129 Q1847.33 196.43 1845.38 193.768 Q1843.46 191.083 1840.08 191.083 Q1836.7 191.083 1834.76 193.768 Q1832.84 196.43 1832.84 201.129 Q1832.84 205.828 1834.76 208.513 Q1836.7 211.175 1840.08 211.175 Q1843.46 211.175 1845.38 208.513 Q1847.33 205.828 1847.33 201.129 Z" fill="#000000" fill-rule="nonzero" fill-opacity="1"></path><path clip-path="url(#clip450)" d="M1880.99 200.041 L1880.99 202.124 L1861.4 202.124 Q1861.68 206.522 1864.04 208.837 Q1866.43 211.129 1870.66 211.129 Q1873.12 211.129 1875.41 210.527 Q1877.72 209.925 1879.99 208.721 L1879.99 212.749 Q1877.7 213.721 1875.29 214.231 Q1872.88 214.74 1870.41 214.74 Q1864.2 214.74 1860.57 211.129 Q1856.96 207.518 1856.96 201.36 Q1856.96 194.995 1860.38 191.268 Q1863.83 187.518 1869.67 187.518 Q1874.9 187.518 1877.93 190.897 Q1880.99 194.254 1880.99 200.041 M1876.73 198.791 Q1876.68 195.296 1874.76 193.212 Q1872.86 191.129 1869.71 191.129 Q1866.15 191.129 1864 193.143 Q1861.87 195.157 1861.54 198.814 L1876.73 198.791 Z" fill="#000000" fill-rule="nonzero" fill-opacity="1"></path><path clip-path="url(#clip450)" d="M1906.63 189.138 L1906.63 193.12 Q1904.83 192.124 1903 191.638 Q1901.19 191.129 1899.34 191.129 Q1895.2 191.129 1892.91 193.768 Q1890.62 196.384 1890.62 201.129 Q1890.62 205.874 1892.91 208.513 Q1895.2 211.129 1899.34 211.129 Q1901.19 211.129 1903 210.643 Q1904.83 210.133 1906.63 209.138 L1906.63 213.073 Q1904.85 213.907 1902.93 214.323 Q1901.03 214.74 1898.88 214.74 Q1893.02 214.74 1889.57 211.059 Q1886.12 207.379 1886.12 201.129 Q1886.12 194.786 1889.6 191.152 Q1893.09 187.518 1899.16 187.518 Q1901.12 187.518 1903 187.935 Q1904.87 188.328 1906.63 189.138 Z" fill="#000000" fill-rule="nonzero" fill-opacity="1"></path><path clip-path="url(#clip450)" d="M1918.25 180.782 L1918.25 188.143 L1927.03 188.143 L1927.03 191.453 L1918.25 191.453 L1918.25 205.527 Q1918.25 208.698 1919.11 209.601 Q1919.99 210.504 1922.65 210.504 L1927.03 210.504 L1927.03 214.069 L1922.65 214.069 Q1917.72 214.069 1915.85 212.24 Q1913.97 210.388 1913.97 205.527 L1913.97 191.453 L1910.85 191.453 L1910.85 188.143 L1913.97 188.143 L1913.97 180.782 L1918.25 180.782 Z" fill="#000000" fill-rule="nonzero" fill-opacity="1"></path><path clip-path="url(#clip450)" d="M1944.41 201.036 Q1939.25 201.036 1937.26 202.217 Q1935.27 203.397 1935.27 206.245 Q1935.27 208.513 1936.75 209.856 Q1938.25 211.175 1940.82 211.175 Q1944.37 211.175 1946.49 208.675 Q1948.65 206.152 1948.65 201.985 L1948.65 201.036 L1944.41 201.036 M1952.91 199.277 L1952.91 214.069 L1948.65 214.069 L1948.65 210.133 Q1947.19 212.495 1945.01 213.629 Q1942.84 214.74 1939.69 214.74 Q1935.71 214.74 1933.35 212.518 Q1931.01 210.272 1931.01 206.522 Q1931.01 202.147 1933.93 199.925 Q1936.87 197.703 1942.68 197.703 L1948.65 197.703 L1948.65 197.286 Q1948.65 194.347 1946.7 192.749 Q1944.78 191.129 1941.29 191.129 Q1939.06 191.129 1936.96 191.661 Q1934.85 192.194 1932.91 193.259 L1932.91 189.323 Q1935.24 188.421 1937.44 187.981 Q1939.64 187.518 1941.73 187.518 Q1947.35 187.518 1950.13 190.434 Q1952.91 193.351 1952.91 199.277 Z" fill="#000000" fill-rule="nonzero" fill-opacity="1"></path><path clip-path="url(#clip450)" d="M1965.89 180.782 L1965.89 188.143 L1974.67 188.143 L1974.67 191.453 L1965.89 191.453 L1965.89 205.527 Q1965.89 208.698 1966.75 209.601 Q1967.63 210.504 1970.29 210.504 L1974.67 210.504 L1974.67 214.069 L1970.29 214.069 Q1965.36 214.069 1963.49 212.24 Q1961.61 210.388 1961.61 205.527 L1961.61 191.453 L1958.49 191.453 L1958.49 188.143 L1961.61 188.143 L1961.61 180.782 L1965.89 180.782 Z" fill="#000000" fill-rule="nonzero" fill-opacity="1"></path><path clip-path="url(#clip450)" d="M1980.27 188.143 L1984.53 188.143 L1984.53 214.069 L1980.27 214.069 L1980.27 188.143 M1980.27 178.05 L1984.53 178.05 L1984.53 183.444 L1980.27 183.444 L1980.27 178.05 Z" fill="#000000" fill-rule="nonzero" fill-opacity="1"></path><path clip-path="url(#clip450)" d="M2003.49 191.129 Q2000.06 191.129 1998.07 193.814 Q1996.08 196.476 1996.08 201.129 Q1996.08 205.782 1998.05 208.467 Q2000.04 211.129 2003.49 211.129 Q2006.89 211.129 2008.88 208.444 Q2010.87 205.758 2010.87 201.129 Q2010.87 196.522 2008.88 193.837 Q2006.89 191.129 2003.49 191.129 M2003.49 187.518 Q2009.04 187.518 2012.21 191.129 Q2015.38 194.74 2015.38 201.129 Q2015.38 207.495 2012.21 211.129 Q2009.04 214.74 2003.49 214.74 Q1997.91 214.74 1994.74 211.129 Q1991.59 207.495 1991.59 201.129 Q1991.59 194.74 1994.74 191.129 Q1997.91 187.518 2003.49 187.518 Z" fill="#000000" fill-rule="nonzero" fill-opacity="1"></path><path clip-path="url(#clip450)" d="M2043.99 198.421 L2043.99 214.069 L2039.74 214.069 L2039.74 198.559 Q2039.74 194.879 2038.3 193.05 Q2036.86 191.222 2033.99 191.222 Q2030.55 191.222 2028.55 193.421 Q2026.56 195.62 2026.56 199.416 L2026.56 214.069 L2022.28 214.069 L2022.28 188.143 L2026.56 188.143 L2026.56 192.171 Q2028.09 189.833 2030.15 188.675 Q2032.24 187.518 2034.94 187.518 Q2039.41 187.518 2041.7 190.296 Q2043.99 193.05 2043.99 198.421 Z" fill="#000000" fill-rule="nonzero" fill-opacity="1"></path></svg>