<svg xmlns="http://www.w3.org/2000/svg" xmlns:xlink="http://www.w3.org/1999/xlink" width="600" height="400" viewBox="0 0 2400 1600">
<defs>
  <clipPath id="clip280">
    <rect x="0" y="0" width="2400" height="1600"></rect>
  </clipPath>
</defs>
<path clip-path="url(#clip280)" d="M0 1600 L2400 1600 L2400 8.88178e-14 L0 8.88178e-14  Z" fill="#ffffff" fill-rule="evenodd" fill-opacity="1"></path>
<defs>
  <clipPath id="clip281">
    <rect x="480" y="0" width="1681" height="1600"></rect>
  </clipPath>
</defs>
<path clip-path="url(#clip280)" d="M257.204 1423.18 L2352.76 1423.18 L2352.76 47.2441 L257.204 47.2441  Z" fill="#ffffff" fill-rule="evenodd" fill-opacity="1"></path>
<defs>
  <clipPath id="clip282">
    <rect x="257" y="47" width="2097" height="1377"></rect>
  </clipPath>
</defs>
<polyline clip-path="url(#clip282)" style="stroke:#000000; stroke-linecap:round; stroke-linejoin:round; stroke-width:2; stroke-opacity:0.1; fill:none" points="536.172,1423.18 536.172,47.2441 "></polyline>
<polyline clip-path="url(#clip282)" style="stroke:#000000; stroke-linecap:round; stroke-linejoin:round; stroke-width:2; stroke-opacity:0.1; fill:none" points="975.491,1423.18 975.491,47.2441 "></polyline>
<polyline clip-path="url(#clip282)" style="stroke:#000000; stroke-linecap:round; stroke-linejoin:round; stroke-width:2; stroke-opacity:0.1; fill:none" points="1414.81,1423.18 1414.81,47.2441 "></polyline>
<polyline clip-path="url(#clip282)" style="stroke:#000000; stroke-linecap:round; stroke-linejoin:round; stroke-width:2; stroke-opacity:0.1; fill:none" points="1854.13,1423.18 1854.13,47.2441 "></polyline>
<polyline clip-path="url(#clip282)" style="stroke:#000000; stroke-linecap:round; stroke-linejoin:round; stroke-width:2; stroke-opacity:0.1; fill:none" points="2293.45,1423.18 2293.45,47.2441 "></polyline>
<polyline clip-path="url(#clip282)" style="stroke:#000000; stroke-linecap:round; stroke-linejoin:round; stroke-width:2; stroke-opacity:0.1; fill:none" points="257.204,1398.19 2352.76,1398.19 "></polyline>
<polyline clip-path="url(#clip282)" style="stroke:#000000; stroke-linecap:round; stroke-linejoin:round; stroke-width:2; stroke-opacity:0.1; fill:none" points="257.204,1189.91 2352.76,1189.91 "></polyline>
<polyline clip-path="url(#clip282)" style="stroke:#000000; stroke-linecap:round; stroke-linejoin:round; stroke-width:2; stroke-opacity:0.1; fill:none" points="257.204,981.626 2352.76,981.626 "></polyline>
<polyline clip-path="url(#clip282)" style="stroke:#000000; stroke-linecap:round; stroke-linejoin:round; stroke-width:2; stroke-opacity:0.1; fill:none" points="257.204,773.345 2352.76,773.345 "></polyline>
<polyline clip-path="url(#clip282)" style="stroke:#000000; stroke-linecap:round; stroke-linejoin:round; stroke-width:2; stroke-opacity:0.1; fill:none" points="257.204,565.064 2352.76,565.064 "></polyline>
<polyline clip-path="url(#clip282)" style="stroke:#000000; stroke-linecap:round; stroke-linejoin:round; stroke-width:2; stroke-opacity:0.1; fill:none" points="257.204,356.783 2352.76,356.783 "></polyline>
<polyline clip-path="url(#clip282)" style="stroke:#000000; stroke-linecap:round; stroke-linejoin:round; stroke-width:2; stroke-opacity:0.1; fill:none" points="257.204,148.503 2352.76,148.503 "></polyline>
<polyline clip-path="url(#clip280)" style="stroke:#000000; stroke-linecap:round; stroke-linejoin:round; stroke-width:4; stroke-opacity:1; fill:none" points="257.204,1423.18 2352.76,1423.18 "></polyline>
<polyline clip-path="url(#clip280)" style="stroke:#000000; stroke-linecap:round; stroke-linejoin:round; stroke-width:4; stroke-opacity:1; fill:none" points="536.172,1423.18 536.172,1404.28 "></polyline>
<polyline clip-path="url(#clip280)" style="stroke:#000000; stroke-linecap:round; stroke-linejoin:round; stroke-width:4; stroke-opacity:1; fill:none" points="975.491,1423.18 975.491,1404.28 "></polyline>
<polyline clip-path="url(#clip280)" style="stroke:#000000; stroke-linecap:round; stroke-linejoin:round; stroke-width:4; stroke-opacity:1; fill:none" points="1414.81,1423.18 1414.81,1404.28 "></polyline>
<polyline clip-path="url(#clip280)" style="stroke:#000000; stroke-linecap:round; stroke-linejoin:round; stroke-width:4; stroke-opacity:1; fill:none" points="1854.13,1423.18 1854.13,1404.28 "></polyline>
<polyline clip-path="url(#clip280)" style="stroke:#000000; stroke-linecap:round; stroke-linejoin:round; stroke-width:4; stroke-opacity:1; fill:none" points="2293.45,1423.18 2293.45,1404.28 "></polyline>
<path clip-path="url(#clip280)" d="M530.824 1481.64 L547.144 1481.64 L547.144 1485.58 L525.199 1485.58 L525.199 1481.64 Q527.861 1478.89 532.445 1474.26 Q537.051 1469.61 538.232 1468.27 Q540.477 1465.74 541.357 1464.01 Q542.26 1462.25 542.26 1460.56 Q542.26 1457.8 540.315 1456.07 Q538.394 1454.33 535.292 1454.33 Q533.093 1454.33 530.639 1455.09 Q528.209 1455.86 525.431 1457.41 L525.431 1452.69 Q528.255 1451.55 530.709 1450.97 Q533.162 1450.39 535.199 1450.39 Q540.57 1450.39 543.764 1453.08 Q546.959 1455.77 546.959 1460.26 Q546.959 1462.39 546.148 1464.31 Q545.361 1466.2 543.255 1468.8 Q542.676 1469.47 539.574 1472.69 Q536.473 1475.88 530.824 1481.64 Z" fill="#000000" fill-rule="nonzero" fill-opacity="1"></path><path clip-path="url(#clip280)" d="M978.5 1455.09 L966.694 1473.54 L978.5 1473.54 L978.5 1455.09 M977.273 1451.02 L983.153 1451.02 L983.153 1473.54 L988.083 1473.54 L988.083 1477.43 L983.153 1477.43 L983.153 1485.58 L978.5 1485.58 L978.5 1477.43 L962.898 1477.43 L962.898 1472.92 L977.273 1451.02 Z" fill="#000000" fill-rule="nonzero" fill-opacity="1"></path><path clip-path="url(#clip280)" d="M1415.21 1466.44 Q1412.07 1466.44 1410.21 1468.59 Q1408.39 1470.74 1408.39 1474.49 Q1408.39 1478.22 1410.21 1480.39 Q1412.07 1482.55 1415.21 1482.55 Q1418.36 1482.55 1420.19 1480.39 Q1422.04 1478.22 1422.04 1474.49 Q1422.04 1470.74 1420.19 1468.59 Q1418.36 1466.44 1415.21 1466.44 M1424.5 1451.78 L1424.5 1456.04 Q1422.74 1455.21 1420.93 1454.77 Q1419.15 1454.33 1417.39 1454.33 Q1412.76 1454.33 1410.31 1457.45 Q1407.88 1460.58 1407.53 1466.9 Q1408.9 1464.89 1410.96 1463.82 Q1413.02 1462.73 1415.49 1462.73 Q1420.7 1462.73 1423.71 1465.9 Q1426.74 1469.05 1426.74 1474.49 Q1426.74 1479.82 1423.59 1483.03 Q1420.45 1486.25 1415.21 1486.25 Q1409.22 1486.25 1406.05 1481.67 Q1402.88 1477.06 1402.88 1468.33 Q1402.88 1460.14 1406.77 1455.28 Q1410.65 1450.39 1417.21 1450.39 Q1418.96 1450.39 1420.75 1450.74 Q1422.55 1451.09 1424.5 1451.78 Z" fill="#000000" fill-rule="nonzero" fill-opacity="1"></path><path clip-path="url(#clip280)" d="M1854.13 1469.17 Q1850.8 1469.17 1848.87 1470.95 Q1846.98 1472.73 1846.98 1475.86 Q1846.98 1478.98 1848.87 1480.77 Q1850.8 1482.55 1854.13 1482.55 Q1857.46 1482.55 1859.38 1480.77 Q1861.3 1478.96 1861.3 1475.86 Q1861.3 1472.73 1859.38 1470.95 Q1857.49 1469.17 1854.13 1469.17 M1849.45 1467.18 Q1846.44 1466.44 1844.75 1464.38 Q1843.09 1462.32 1843.09 1459.35 Q1843.09 1455.21 1846.03 1452.8 Q1848.99 1450.39 1854.13 1450.39 Q1859.29 1450.39 1862.23 1452.8 Q1865.17 1455.21 1865.17 1459.35 Q1865.17 1462.32 1863.48 1464.38 Q1861.81 1466.44 1858.83 1467.18 Q1862.21 1467.96 1864.08 1470.26 Q1865.98 1472.55 1865.98 1475.86 Q1865.98 1480.88 1862.9 1483.57 Q1859.85 1486.25 1854.13 1486.25 Q1848.41 1486.25 1845.33 1483.57 Q1842.28 1480.88 1842.28 1475.86 Q1842.28 1472.55 1844.18 1470.26 Q1846.07 1467.96 1849.45 1467.18 M1847.74 1459.79 Q1847.74 1462.48 1849.41 1463.98 Q1851.1 1465.49 1854.13 1465.49 Q1857.14 1465.49 1858.83 1463.98 Q1860.54 1462.48 1860.54 1459.79 Q1860.54 1457.11 1858.83 1455.6 Q1857.14 1454.1 1854.13 1454.1 Q1851.1 1454.1 1849.41 1455.6 Q1847.74 1457.11 1847.74 1459.79 Z" fill="#000000" fill-rule="nonzero" fill-opacity="1"></path><path clip-path="url(#clip280)" d="M2268.14 1481.64 L2275.77 1481.64 L2275.77 1455.28 L2267.46 1456.95 L2267.46 1452.69 L2275.73 1451.02 L2280.4 1451.02 L2280.4 1481.64 L2288.04 1481.64 L2288.04 1485.58 L2268.14 1485.58 L2268.14 1481.64 Z" fill="#000000" fill-rule="nonzero" fill-opacity="1"></path><path clip-path="url(#clip280)" d="M2307.49 1454.1 Q2303.88 1454.1 2302.05 1457.66 Q2300.24 1461.2 2300.24 1468.33 Q2300.24 1475.44 2302.05 1479.01 Q2303.88 1482.55 2307.49 1482.55 Q2311.12 1482.55 2312.93 1479.01 Q2314.76 1475.44 2314.76 1468.33 Q2314.76 1461.2 2312.93 1457.66 Q2311.12 1454.1 2307.49 1454.1 M2307.49 1450.39 Q2313.3 1450.39 2316.35 1455 Q2319.43 1459.58 2319.43 1468.33 Q2319.43 1477.06 2316.35 1481.67 Q2313.3 1486.25 2307.49 1486.25 Q2301.68 1486.25 2298.6 1481.67 Q2295.54 1477.06 2295.54 1468.33 Q2295.54 1459.58 2298.6 1455 Q2301.68 1450.39 2307.49 1450.39 Z" fill="#000000" fill-rule="nonzero" fill-opacity="1"></path><path clip-path="url(#clip280)" d="M1284.88 1520.52 L1325.08 1520.52 L1325.08 1525.93 L1308.21 1525.93 L1308.21 1568.04 L1301.75 1568.04 L1301.75 1525.93 L1284.88 1525.93 L1284.88 1520.52 Z" fill="#000000" fill-rule="nonzero" fill-opacity="1"></path><polyline clip-path="url(#clip280)" style="stroke:#000000; stroke-linecap:round; stroke-linejoin:round; stroke-width:4; stroke-opacity:1; fill:none" points="257.204,1423.18 257.204,47.2441 "></polyline>
<polyline clip-path="url(#clip280)" style="stroke:#000000; stroke-linecap:round; stroke-linejoin:round; stroke-width:4; stroke-opacity:1; fill:none" points="257.204,1398.19 276.102,1398.19 "></polyline>
<polyline clip-path="url(#clip280)" style="stroke:#000000; stroke-linecap:round; stroke-linejoin:round; stroke-width:4; stroke-opacity:1; fill:none" points="257.204,1189.91 276.102,1189.91 "></polyline>
<polyline clip-path="url(#clip280)" style="stroke:#000000; stroke-linecap:round; stroke-linejoin:round; stroke-width:4; stroke-opacity:1; fill:none" points="257.204,981.626 276.102,981.626 "></polyline>
<polyline clip-path="url(#clip280)" style="stroke:#000000; stroke-linecap:round; stroke-linejoin:round; stroke-width:4; stroke-opacity:1; fill:none" points="257.204,773.345 276.102,773.345 "></polyline>
<polyline clip-path="url(#clip280)" style="stroke:#000000; stroke-linecap:round; stroke-linejoin:round; stroke-width:4; stroke-opacity:1; fill:none" points="257.204,565.064 276.102,565.064 "></polyline>
<polyline clip-path="url(#clip280)" style="stroke:#000000; stroke-linecap:round; stroke-linejoin:round; stroke-width:4; stroke-opacity:1; fill:none" points="257.204,356.783 276.102,356.783 "></polyline>
<polyline clip-path="url(#clip280)" style="stroke:#000000; stroke-linecap:round; stroke-linejoin:round; stroke-width:4; stroke-opacity:1; fill:none" points="257.204,148.503 276.102,148.503 "></polyline>
<path clip-path="url(#clip280)" d="M115.256 1398.64 L144.931 1398.64 L144.931 1402.57 L115.256 1402.57 L115.256 1398.64 Z" fill="#000000" fill-rule="nonzero" fill-opacity="1"></path><path clip-path="url(#clip280)" d="M169.19 1396.83 Q172.547 1397.55 174.422 1399.82 Q176.32 1402.09 176.32 1405.42 Q176.32 1410.54 172.802 1413.34 Q169.283 1416.14 162.802 1416.14 Q160.626 1416.14 158.311 1415.7 Q156.019 1415.28 153.566 1414.43 L153.566 1409.91 Q155.51 1411.05 157.825 1411.62 Q160.14 1412.2 162.663 1412.2 Q167.061 1412.2 169.352 1410.47 Q171.667 1408.73 171.667 1405.42 Q171.667 1402.37 169.514 1400.65 Q167.385 1398.92 163.565 1398.92 L159.538 1398.92 L159.538 1395.07 L163.751 1395.07 Q167.2 1395.07 169.028 1393.71 Q170.857 1392.32 170.857 1389.73 Q170.857 1387.06 168.959 1385.65 Q167.084 1384.22 163.565 1384.22 Q161.644 1384.22 159.445 1384.63 Q157.246 1385.05 154.607 1385.93 L154.607 1381.76 Q157.269 1381.02 159.584 1380.65 Q161.922 1380.28 163.982 1380.28 Q169.306 1380.28 172.408 1382.71 Q175.51 1385.12 175.51 1389.24 Q175.51 1392.11 173.866 1394.1 Q172.223 1396.07 169.19 1396.83 Z" fill="#000000" fill-rule="nonzero" fill-opacity="1"></path><path clip-path="url(#clip280)" d="M185.186 1409.59 L190.07 1409.59 L190.07 1415.47 L185.186 1415.47 L185.186 1409.59 Z" fill="#000000" fill-rule="nonzero" fill-opacity="1"></path><path clip-path="url(#clip280)" d="M200.301 1380.91 L218.658 1380.91 L218.658 1384.84 L204.584 1384.84 L204.584 1393.31 Q205.602 1392.97 206.621 1392.81 Q207.639 1392.62 208.658 1392.62 Q214.445 1392.62 217.824 1395.79 Q221.204 1398.96 221.204 1404.38 Q221.204 1409.96 217.732 1413.06 Q214.26 1416.14 207.94 1416.14 Q205.764 1416.14 203.496 1415.77 Q201.25 1415.4 198.843 1414.66 L198.843 1409.96 Q200.926 1411.09 203.149 1411.65 Q205.371 1412.2 207.848 1412.2 Q211.852 1412.2 214.19 1410.1 Q216.528 1407.99 216.528 1404.38 Q216.528 1400.77 214.19 1398.66 Q211.852 1396.56 207.848 1396.56 Q205.973 1396.56 204.098 1396.97 Q202.246 1397.39 200.301 1398.27 L200.301 1380.91 Z" fill="#000000" fill-rule="nonzero" fill-opacity="1"></path><path clip-path="url(#clip280)" d="M114.26 1190.36 L143.936 1190.36 L143.936 1194.29 L114.26 1194.29 L114.26 1190.36 Z" fill="#000000" fill-rule="nonzero" fill-opacity="1"></path><path clip-path="url(#clip280)" d="M168.195 1188.55 Q171.552 1189.27 173.427 1191.54 Q175.325 1193.81 175.325 1197.14 Q175.325 1202.26 171.806 1205.06 Q168.288 1207.86 161.806 1207.86 Q159.63 1207.86 157.315 1207.42 Q155.024 1207 152.57 1206.14 L152.57 1201.63 Q154.515 1202.77 156.829 1203.34 Q159.144 1203.92 161.667 1203.92 Q166.065 1203.92 168.357 1202.19 Q170.672 1200.45 170.672 1197.14 Q170.672 1194.08 168.519 1192.37 Q166.39 1190.64 162.57 1190.64 L158.542 1190.64 L158.542 1186.79 L162.755 1186.79 Q166.204 1186.79 168.033 1185.43 Q169.862 1184.04 169.862 1181.45 Q169.862 1178.78 167.964 1177.37 Q166.089 1175.94 162.57 1175.94 Q160.649 1175.94 158.45 1176.35 Q156.251 1176.77 153.612 1177.65 L153.612 1173.48 Q156.274 1172.74 158.589 1172.37 Q160.927 1172 162.987 1172 Q168.311 1172 171.413 1174.43 Q174.514 1176.84 174.514 1180.96 Q174.514 1183.83 172.871 1185.82 Q171.227 1187.79 168.195 1188.55 Z" fill="#000000" fill-rule="nonzero" fill-opacity="1"></path><path clip-path="url(#clip280)" d="M184.19 1201.31 L189.075 1201.31 L189.075 1207.19 L184.19 1207.19 L184.19 1201.31 Z" fill="#000000" fill-rule="nonzero" fill-opacity="1"></path><path clip-path="url(#clip280)" d="M209.26 1175.71 Q205.649 1175.71 203.82 1179.27 Q202.014 1182.81 202.014 1189.94 Q202.014 1197.05 203.82 1200.61 Q205.649 1204.15 209.26 1204.15 Q212.894 1204.15 214.699 1200.61 Q216.528 1197.05 216.528 1189.94 Q216.528 1182.81 214.699 1179.27 Q212.894 1175.71 209.26 1175.71 M209.26 1172 Q215.07 1172 218.125 1176.61 Q221.204 1181.19 221.204 1189.94 Q221.204 1198.67 218.125 1203.27 Q215.07 1207.86 209.26 1207.86 Q203.449 1207.86 200.371 1203.27 Q197.315 1198.67 197.315 1189.94 Q197.315 1181.19 200.371 1176.61 Q203.449 1172 209.26 1172 Z" fill="#000000" fill-rule="nonzero" fill-opacity="1"></path><path clip-path="url(#clip280)" d="M115.256 982.077 L144.931 982.077 L144.931 986.012 L115.256 986.012 L115.256 982.077 Z" fill="#000000" fill-rule="nonzero" fill-opacity="1"></path><path clip-path="url(#clip280)" d="M159.052 994.971 L175.371 994.971 L175.371 998.906 L153.427 998.906 L153.427 994.971 Q156.089 992.216 160.672 987.586 Q165.278 982.934 166.459 981.591 Q168.704 979.068 169.584 977.332 Q170.487 975.573 170.487 973.883 Q170.487 971.128 168.542 969.392 Q166.621 967.656 163.519 967.656 Q161.32 967.656 158.866 968.42 Q156.436 969.184 153.658 970.735 L153.658 966.012 Q156.482 964.878 158.936 964.299 Q161.39 963.721 163.427 963.721 Q168.797 963.721 171.991 966.406 Q175.186 969.091 175.186 973.582 Q175.186 975.711 174.376 977.633 Q173.589 979.531 171.482 982.123 Q170.903 982.795 167.802 986.012 Q164.7 989.207 159.052 994.971 Z" fill="#000000" fill-rule="nonzero" fill-opacity="1"></path><path clip-path="url(#clip280)" d="M185.186 993.026 L190.07 993.026 L190.07 998.906 L185.186 998.906 L185.186 993.026 Z" fill="#000000" fill-rule="nonzero" fill-opacity="1"></path><path clip-path="url(#clip280)" d="M200.301 964.346 L218.658 964.346 L218.658 968.281 L204.584 968.281 L204.584 976.753 Q205.602 976.406 206.621 976.244 Q207.639 976.059 208.658 976.059 Q214.445 976.059 217.824 979.23 Q221.204 982.401 221.204 987.818 Q221.204 993.397 217.732 996.498 Q214.26 999.577 207.94 999.577 Q205.764 999.577 203.496 999.207 Q201.25 998.836 198.843 998.096 L198.843 993.397 Q200.926 994.531 203.149 995.086 Q205.371 995.642 207.848 995.642 Q211.852 995.642 214.19 993.535 Q216.528 991.429 216.528 987.818 Q216.528 984.207 214.19 982.1 Q211.852 979.994 207.848 979.994 Q205.973 979.994 204.098 980.41 Q202.246 980.827 200.301 981.707 L200.301 964.346 Z" fill="#000000" fill-rule="nonzero" fill-opacity="1"></path><path clip-path="url(#clip280)" d="M114.26 773.796 L143.936 773.796 L143.936 777.731 L114.26 777.731 L114.26 773.796 Z" fill="#000000" fill-rule="nonzero" fill-opacity="1"></path><path clip-path="url(#clip280)" d="M158.056 786.69 L174.376 786.69 L174.376 790.625 L152.431 790.625 L152.431 786.69 Q155.093 783.935 159.677 779.306 Q164.283 774.653 165.464 773.31 Q167.709 770.787 168.589 769.051 Q169.491 767.292 169.491 765.602 Q169.491 762.847 167.547 761.111 Q165.626 759.375 162.524 759.375 Q160.325 759.375 157.871 760.139 Q155.44 760.903 152.663 762.454 L152.663 757.732 Q155.487 756.597 157.94 756.019 Q160.394 755.44 162.431 755.44 Q167.802 755.44 170.996 758.125 Q174.19 760.81 174.19 765.301 Q174.19 767.431 173.38 769.352 Q172.593 771.25 170.487 773.843 Q169.908 774.514 166.806 777.731 Q163.704 780.926 158.056 786.69 Z" fill="#000000" fill-rule="nonzero" fill-opacity="1"></path><path clip-path="url(#clip280)" d="M184.19 784.745 L189.075 784.745 L189.075 790.625 L184.19 790.625 L184.19 784.745 Z" fill="#000000" fill-rule="nonzero" fill-opacity="1"></path><path clip-path="url(#clip280)" d="M209.26 759.144 Q205.649 759.144 203.82 762.708 Q202.014 766.25 202.014 773.38 Q202.014 780.486 203.82 784.051 Q205.649 787.593 209.26 787.593 Q212.894 787.593 214.699 784.051 Q216.528 780.486 216.528 773.38 Q216.528 766.25 214.699 762.708 Q212.894 759.144 209.26 759.144 M209.26 755.44 Q215.07 755.44 218.125 760.046 Q221.204 764.63 221.204 773.38 Q221.204 782.106 218.125 786.713 Q215.07 791.296 209.26 791.296 Q203.449 791.296 200.371 786.713 Q197.315 782.106 197.315 773.38 Q197.315 764.63 200.371 760.046 Q203.449 755.44 209.26 755.44 Z" fill="#000000" fill-rule="nonzero" fill-opacity="1"></path><path clip-path="url(#clip280)" d="M115.256 565.516 L144.931 565.516 L144.931 569.451 L115.256 569.451 L115.256 565.516 Z" fill="#000000" fill-rule="nonzero" fill-opacity="1"></path><path clip-path="url(#clip280)" d="M155.834 578.409 L163.473 578.409 L163.473 552.043 L155.163 553.71 L155.163 549.451 L163.427 547.784 L168.102 547.784 L168.102 578.409 L175.741 578.409 L175.741 582.344 L155.834 582.344 L155.834 578.409 Z" fill="#000000" fill-rule="nonzero" fill-opacity="1"></path><path clip-path="url(#clip280)" d="M185.186 576.465 L190.07 576.465 L190.07 582.344 L185.186 582.344 L185.186 576.465 Z" fill="#000000" fill-rule="nonzero" fill-opacity="1"></path><path clip-path="url(#clip280)" d="M200.301 547.784 L218.658 547.784 L218.658 551.719 L204.584 551.719 L204.584 560.191 Q205.602 559.844 206.621 559.682 Q207.639 559.497 208.658 559.497 Q214.445 559.497 217.824 562.668 Q221.204 565.84 221.204 571.256 Q221.204 576.835 217.732 579.937 Q214.26 583.015 207.94 583.015 Q205.764 583.015 203.496 582.645 Q201.25 582.275 198.843 581.534 L198.843 576.835 Q200.926 577.969 203.149 578.525 Q205.371 579.08 207.848 579.08 Q211.852 579.08 214.19 576.974 Q216.528 574.867 216.528 571.256 Q216.528 567.645 214.19 565.539 Q211.852 563.432 207.848 563.432 Q205.973 563.432 204.098 563.849 Q202.246 564.266 200.301 565.145 L200.301 547.784 Z" fill="#000000" fill-rule="nonzero" fill-opacity="1"></path><path clip-path="url(#clip280)" d="M114.26 357.235 L143.936 357.235 L143.936 361.17 L114.26 361.17 L114.26 357.235 Z" fill="#000000" fill-rule="nonzero" fill-opacity="1"></path><path clip-path="url(#clip280)" d="M154.839 370.128 L162.477 370.128 L162.477 343.763 L154.167 345.429 L154.167 341.17 L162.431 339.503 L167.107 339.503 L167.107 370.128 L174.746 370.128 L174.746 374.063 L154.839 374.063 L154.839 370.128 Z" fill="#000000" fill-rule="nonzero" fill-opacity="1"></path><path clip-path="url(#clip280)" d="M184.19 368.184 L189.075 368.184 L189.075 374.063 L184.19 374.063 L184.19 368.184 Z" fill="#000000" fill-rule="nonzero" fill-opacity="1"></path><path clip-path="url(#clip280)" d="M209.26 342.582 Q205.649 342.582 203.82 346.147 Q202.014 349.688 202.014 356.818 Q202.014 363.924 203.82 367.489 Q205.649 371.031 209.26 371.031 Q212.894 371.031 214.699 367.489 Q216.528 363.924 216.528 356.818 Q216.528 349.688 214.699 346.147 Q212.894 342.582 209.26 342.582 M209.26 338.878 Q215.07 338.878 218.125 343.485 Q221.204 348.068 221.204 356.818 Q221.204 365.545 218.125 370.151 Q215.07 374.735 209.26 374.735 Q203.449 374.735 200.371 370.151 Q197.315 365.545 197.315 356.818 Q197.315 348.068 200.371 343.485 Q203.449 338.878 209.26 338.878 Z" fill="#000000" fill-rule="nonzero" fill-opacity="1"></path><path clip-path="url(#clip280)" d="M115.256 148.954 L144.931 148.954 L144.931 152.889 L115.256 152.889 L115.256 148.954 Z" fill="#000000" fill-rule="nonzero" fill-opacity="1"></path><path clip-path="url(#clip280)" d="M165.024 134.301 Q161.413 134.301 159.584 137.866 Q157.778 141.408 157.778 148.537 Q157.778 155.644 159.584 159.208 Q161.413 162.75 165.024 162.75 Q168.658 162.75 170.464 159.208 Q172.292 155.644 172.292 148.537 Q172.292 141.408 170.464 137.866 Q168.658 134.301 165.024 134.301 M165.024 130.598 Q170.834 130.598 173.889 135.204 Q176.968 139.787 176.968 148.537 Q176.968 157.264 173.889 161.871 Q170.834 166.454 165.024 166.454 Q159.214 166.454 156.135 161.871 Q153.079 157.264 153.079 148.537 Q153.079 139.787 156.135 135.204 Q159.214 130.598 165.024 130.598 Z" fill="#000000" fill-rule="nonzero" fill-opacity="1"></path><path clip-path="url(#clip280)" d="M185.186 159.903 L190.07 159.903 L190.07 165.783 L185.186 165.783 L185.186 159.903 Z" fill="#000000" fill-rule="nonzero" fill-opacity="1"></path><path clip-path="url(#clip280)" d="M200.301 131.223 L218.658 131.223 L218.658 135.158 L204.584 135.158 L204.584 143.63 Q205.602 143.283 206.621 143.121 Q207.639 142.935 208.658 142.935 Q214.445 142.935 217.824 146.107 Q221.204 149.278 221.204 154.695 Q221.204 160.273 217.732 163.375 Q214.26 166.454 207.94 166.454 Q205.764 166.454 203.496 166.083 Q201.25 165.713 198.843 164.972 L198.843 160.273 Q200.926 161.408 203.149 161.963 Q205.371 162.519 207.848 162.519 Q211.852 162.519 214.19 160.412 Q216.528 158.306 216.528 154.695 Q216.528 151.084 214.19 148.977 Q211.852 146.871 207.848 146.871 Q205.973 146.871 204.098 147.287 Q202.246 147.704 200.301 148.584 L200.301 131.223 Z" fill="#000000" fill-rule="nonzero" fill-opacity="1"></path><path clip-path="url(#clip280)" d="M16.4842 793.299 L16.4842 765.99 L21.895 765.99 L21.895 786.87 L35.8996 786.87 L35.8996 768.027 L41.3104 768.027 L41.3104 786.87 L64.0042 786.87 L64.0042 793.299 L16.4842 793.299 Z" fill="#000000" fill-rule="nonzero" fill-opacity="1"></path><path clip-path="url(#clip280)" d="M14.5426 741.991 Q21.8632 746.256 29.0246 748.325 Q36.186 750.394 43.5384 750.394 Q50.8908 750.394 58.1159 748.325 Q65.3091 746.225 72.5979 741.991 L72.5979 747.084 Q65.1182 751.858 57.8931 754.245 Q50.668 756.601 43.5384 756.601 Q36.4406 756.601 29.2474 754.245 Q22.0542 751.89 14.5426 747.084 L14.5426 741.991 Z" fill="#000000" fill-rule="nonzero" fill-opacity="1"></path><path clip-path="url(#clip280)" d="M16.4842 736.963 L16.4842 696.763 L21.895 696.763 L21.895 713.632 L64.0042 713.632 L64.0042 720.093 L21.895 720.093 L21.895 736.963 L16.4842 736.963 Z" fill="#000000" fill-rule="nonzero" fill-opacity="1"></path><path clip-path="url(#clip280)" d="M14.5426 691.734 L14.5426 686.642 Q22.0542 681.867 29.2474 679.512 Q36.4406 677.125 43.5384 677.125 Q50.668 677.125 57.8931 679.512 Q65.1182 681.867 72.5979 686.642 L72.5979 691.734 Q65.3091 687.501 58.1159 685.432 Q50.8908 683.331 43.5384 683.331 Q36.186 683.331 29.0246 685.432 Q21.8632 687.501 14.5426 691.734 Z" fill="#000000" fill-rule="nonzero" fill-opacity="1"></path><polyline clip-path="url(#clip282)" style="stroke:#009af9; stroke-linecap:round; stroke-linejoin:round; stroke-width:4; stroke-opacity:1; fill:none" points="316.512,87.7078 536.172,230.564 755.831,374.405 975.491,518.507 1195.15,662.715 1414.81,806.977 1634.47,951.269 1854.13,1095.58 2073.79,1239.9 2293.45,1384.24 "></polyline>
<polyline clip-path="url(#clip282)" style="stroke:#e26f46; stroke-linecap:round; stroke-linejoin:round; stroke-width:4; stroke-opacity:1; fill:none" points="316.512,86.1857 536.172,229.77 755.831,373.871 975.491,518.105 1195.15,662.393 1414.81,806.708 1634.47,951.039 1854.13,1095.38 2073.79,1239.73 2293.45,1384.08 "></polyline>
<path clip-path="url(#clip280)" d="M1582.87 248.629 L2282.9 248.629 L2282.9 93.1086 L1582.87 93.1086  Z" fill="#ffffff" fill-rule="evenodd" fill-opacity="1"></path>
<polyline clip-path="url(#clip280)" style="stroke:#000000; stroke-linecap:round; stroke-linejoin:round; stroke-width:4; stroke-opacity:1; fill:none" points="1582.87,248.629 2282.9,248.629 2282.9,93.1086 1582.87,93.1086 1582.87,248.629 "></polyline>
<polyline clip-path="url(#clip280)" style="stroke:#009af9; stroke-linecap:round; stroke-linejoin:round; stroke-width:4; stroke-opacity:1; fill:none" points="1606.15,144.949 1745.85,144.949 "></polyline>
<path clip-path="url(#clip280)" d="M1776.24 127.669 L1780.92 127.669 L1780.92 159.821 Q1780.92 166.071 1778.53 168.895 Q1776.17 171.719 1770.92 171.719 L1769.14 171.719 L1769.14 167.784 L1770.6 167.784 Q1773.7 167.784 1774.97 166.048 Q1776.24 164.312 1776.24 159.821 L1776.24 127.669 Z" fill="#000000" fill-rule="nonzero" fill-opacity="1"></path><path clip-path="url(#clip280)" d="M1805.66 140.701 L1835.34 140.701 L1835.34 144.59 L1805.66 144.59 L1805.66 140.701 M1805.66 150.145 L1835.34 150.145 L1835.34 154.081 L1805.66 154.081 L1805.66 150.145 Z" fill="#000000" fill-rule="nonzero" fill-opacity="1"></path><path clip-path="url(#clip280)" d="M1861.31 158.293 L1868.95 158.293 L1868.95 131.928 L1860.64 133.595 L1860.64 129.335 L1868.9 127.669 L1873.58 127.669 L1873.58 158.293 L1881.22 158.293 L1881.22 162.229 L1861.31 162.229 L1861.31 158.293 Z" fill="#000000" fill-rule="nonzero" fill-opacity="1"></path><path clip-path="url(#clip280)" d="M1891.15 156.349 L1896.03 156.349 L1896.03 160.33 L1892.24 167.738 L1889.25 167.738 L1891.15 160.33 L1891.15 156.349 Z" fill="#000000" fill-rule="nonzero" fill-opacity="1"></path><path clip-path="url(#clip280)" d="M1922.75 149.289 Q1922.75 153.988 1924.67 156.673 Q1926.61 159.335 1929.99 159.335 Q1933.37 159.335 1935.32 156.673 Q1937.26 153.988 1937.26 149.289 Q1937.26 144.59 1935.32 141.928 Q1933.37 139.243 1929.99 139.243 Q1926.61 139.243 1924.67 141.928 Q1922.75 144.59 1922.75 149.289 M1937.26 158.34 Q1935.92 160.655 1933.86 161.789 Q1931.82 162.9 1928.95 162.9 Q1924.25 162.9 1921.29 159.15 Q1918.35 155.4 1918.35 149.289 Q1918.35 143.178 1921.29 139.428 Q1924.25 135.678 1928.95 135.678 Q1931.82 135.678 1933.86 136.812 Q1935.92 137.923 1937.26 140.238 L1937.26 136.303 L1941.52 136.303 L1941.52 172.09 L1937.26 172.09 L1937.26 158.34 Z" fill="#000000" fill-rule="nonzero" fill-opacity="1"></path><path clip-path="url(#clip280)" d="M1965.92 140.701 L1995.59 140.701 L1995.59 144.59 L1965.92 144.59 L1965.92 140.701 M1965.92 150.145 L1995.59 150.145 L1995.59 154.081 L1965.92 154.081 L1965.92 150.145 Z" fill="#000000" fill-rule="nonzero" fill-opacity="1"></path><path clip-path="url(#clip280)" d="M2033.6 131.743 L2021.8 150.192 L2033.6 150.192 L2033.6 131.743 M2032.38 127.669 L2038.26 127.669 L2038.26 150.192 L2043.19 150.192 L2043.19 154.081 L2038.26 154.081 L2038.26 162.229 L2033.6 162.229 L2033.6 154.081 L2018 154.081 L2018 149.567 L2032.38 127.669 Z" fill="#000000" fill-rule="nonzero" fill-opacity="1"></path><path clip-path="url(#clip280)" d="M2051.4 156.349 L2056.29 156.349 L2056.29 160.33 L2052.49 167.738 L2049.51 167.738 L2051.4 160.33 L2051.4 156.349 Z" fill="#000000" fill-rule="nonzero" fill-opacity="1"></path><path clip-path="url(#clip280)" d="M2080.64 127.669 L2085.32 127.669 L2085.32 158.293 L2102.14 158.293 L2102.14 162.229 L2080.64 162.229 L2080.64 127.669 Z" fill="#000000" fill-rule="nonzero" fill-opacity="1"></path><path clip-path="url(#clip280)" d="M2107.42 140.701 L2137.1 140.701 L2137.1 144.59 L2107.42 144.59 L2107.42 140.701 M2107.42 150.145 L2137.1 150.145 L2137.1 154.081 L2107.42 154.081 L2107.42 150.145 Z" fill="#000000" fill-rule="nonzero" fill-opacity="1"></path><path clip-path="url(#clip280)" d="M2151.22 158.293 L2167.54 158.293 L2167.54 162.229 L2145.59 162.229 L2145.59 158.293 Q2148.26 155.539 2152.84 150.909 Q2157.44 146.256 2158.63 144.914 Q2160.87 142.391 2161.75 140.655 Q2162.65 138.895 2162.65 137.206 Q2162.65 134.451 2160.71 132.715 Q2158.79 130.979 2155.69 130.979 Q2153.49 130.979 2151.03 131.743 Q2148.6 132.507 2145.82 134.057 L2145.82 129.335 Q2148.65 128.201 2151.1 127.622 Q2153.56 127.044 2155.59 127.044 Q2160.96 127.044 2164.16 129.729 Q2167.35 132.414 2167.35 136.905 Q2167.35 139.034 2166.54 140.956 Q2165.76 142.854 2163.65 145.446 Q2163.07 146.118 2159.97 149.335 Q2156.87 152.53 2151.22 158.293 Z" fill="#000000" fill-rule="nonzero" fill-opacity="1"></path><path clip-path="url(#clip280)" d="M2187.35 130.747 Q2183.74 130.747 2181.91 134.312 Q2180.11 137.854 2180.11 144.983 Q2180.11 152.09 2181.91 155.655 Q2183.74 159.196 2187.35 159.196 Q2190.99 159.196 2192.79 155.655 Q2194.62 152.09 2194.62 144.983 Q2194.62 137.854 2192.79 134.312 Q2190.99 130.747 2187.35 130.747 M2187.35 127.044 Q2193.16 127.044 2196.22 131.65 Q2199.3 136.233 2199.3 144.983 Q2199.3 153.71 2196.22 158.317 Q2193.16 162.9 2187.35 162.9 Q2181.54 162.9 2178.46 158.317 Q2175.41 153.71 2175.41 144.983 Q2175.41 136.233 2178.46 131.65 Q2181.54 127.044 2187.35 127.044 Z" fill="#000000" fill-rule="nonzero" fill-opacity="1"></path><path clip-path="url(#clip280)" d="M2217.51 130.747 Q2213.9 130.747 2212.07 134.312 Q2210.27 137.854 2210.27 144.983 Q2210.27 152.09 2212.07 155.655 Q2213.9 159.196 2217.51 159.196 Q2221.15 159.196 2222.95 155.655 Q2224.78 152.09 2224.78 144.983 Q2224.78 137.854 2222.95 134.312 Q2221.15 130.747 2217.51 130.747 M2217.51 127.044 Q2223.32 127.044 2226.38 131.65 Q2229.46 136.233 2229.46 144.983 Q2229.46 153.71 2226.38 158.317 Q2223.32 162.9 2217.51 162.9 Q2211.7 162.9 2208.63 158.317 Q2205.57 153.71 2205.57 144.983 Q2205.57 136.233 2208.63 131.65 Q2211.7 127.044 2217.51 127.044 Z" fill="#000000" fill-rule="nonzero" fill-opacity="1"></path><path clip-path="url(#clip280)" d="M2247.68 130.747 Q2244.06 130.747 2242.24 134.312 Q2240.43 137.854 2240.43 144.983 Q2240.43 152.09 2242.24 155.655 Q2244.06 159.196 2247.68 159.196 Q2251.31 159.196 2253.12 155.655 Q2254.94 152.09 2254.94 144.983 Q2254.94 137.854 2253.12 134.312 Q2251.31 130.747 2247.68 130.747 M2247.68 127.044 Q2253.49 127.044 2256.54 131.65 Q2259.62 136.233 2259.62 144.983 Q2259.62 153.71 2256.54 158.317 Q2253.49 162.9 2247.68 162.9 Q2241.87 162.9 2238.79 158.317 Q2235.73 153.71 2235.73 144.983 Q2235.73 136.233 2238.79 131.65 Q2241.87 127.044 2247.68 127.044 Z" fill="#000000" fill-rule="nonzero" fill-opacity="1"></path><polyline clip-path="url(#clip280)" style="stroke:#e26f46; stroke-linecap:round; stroke-linejoin:round; stroke-width:4; stroke-opacity:1; fill:none" points="1606.15,196.789 1745.85,196.789 "></polyline>
<path clip-path="url(#clip280)" d="M1793.16 200.041 L1793.16 202.124 L1773.58 202.124 Q1773.86 206.522 1776.22 208.837 Q1778.6 211.129 1782.84 211.129 Q1785.29 211.129 1787.59 210.527 Q1789.9 209.925 1792.17 208.721 L1792.17 212.749 Q1789.88 213.721 1787.47 214.231 Q1785.06 214.74 1782.59 214.74 Q1776.38 214.74 1772.75 211.129 Q1769.14 207.518 1769.14 201.36 Q1769.14 194.995 1772.56 191.268 Q1776.01 187.518 1781.85 187.518 Q1787.08 187.518 1790.11 190.897 Q1793.16 194.254 1793.16 200.041 M1788.91 198.791 Q1788.86 195.296 1786.94 193.212 Q1785.04 191.129 1781.89 191.129 Q1778.33 191.129 1776.17 193.143 Q1774.04 195.157 1773.72 198.814 L1788.91 198.791 Z" fill="#000000" fill-rule="nonzero" fill-opacity="1"></path><path clip-path="url(#clip280)" d="M1820.87 188.143 L1811.5 200.759 L1821.36 214.069 L1816.34 214.069 L1808.79 203.883 L1801.24 214.069 L1796.22 214.069 L1806.29 200.504 L1797.08 188.143 L1802.1 188.143 L1808.97 197.379 L1815.85 188.143 L1820.87 188.143 Z" fill="#000000" fill-rule="nonzero" fill-opacity="1"></path><path clip-path="url(#clip280)" d="M1831.5 210.18 L1831.5 223.93 L1827.22 223.93 L1827.22 188.143 L1831.5 188.143 L1831.5 192.078 Q1832.84 189.763 1834.88 188.652 Q1836.94 187.518 1839.78 187.518 Q1844.51 187.518 1847.45 191.268 Q1850.41 195.018 1850.41 201.129 Q1850.41 207.24 1847.45 210.99 Q1844.51 214.74 1839.78 214.74 Q1836.94 214.74 1834.88 213.629 Q1832.84 212.495 1831.5 210.18 M1845.99 201.129 Q1845.99 196.43 1844.04 193.768 Q1842.12 191.083 1838.74 191.083 Q1835.36 191.083 1833.42 193.768 Q1831.5 196.43 1831.5 201.129 Q1831.5 205.828 1833.42 208.513 Q1835.36 211.175 1838.74 211.175 Q1842.12 211.175 1844.04 208.513 Q1845.99 205.828 1845.99 201.129 Z" fill="#000000" fill-rule="nonzero" fill-opacity="1"></path><path clip-path="url(#clip280)" d="M1879.65 200.041 L1879.65 202.124 L1860.06 202.124 Q1860.34 206.522 1862.7 208.837 Q1865.09 211.129 1869.32 211.129 Q1871.78 211.129 1874.07 210.527 Q1876.38 209.925 1878.65 208.721 L1878.65 212.749 Q1876.36 213.721 1873.95 214.231 Q1871.54 214.74 1869.07 214.74 Q1862.86 214.74 1859.23 211.129 Q1855.62 207.518 1855.62 201.36 Q1855.62 194.995 1859.04 191.268 Q1862.49 187.518 1868.33 187.518 Q1873.56 187.518 1876.59 190.897 Q1879.65 194.254 1879.65 200.041 M1875.39 198.791 Q1875.34 195.296 1873.42 193.212 Q1871.52 191.129 1868.37 191.129 Q1864.81 191.129 1862.65 193.143 Q1860.53 195.157 1860.2 198.814 L1875.39 198.791 Z" fill="#000000" fill-rule="nonzero" fill-opacity="1"></path><path clip-path="url(#clip280)" d="M1905.29 189.138 L1905.29 193.12 Q1903.49 192.124 1901.66 191.638 Q1899.85 191.129 1898 191.129 Q1893.86 191.129 1891.57 193.768 Q1889.28 196.384 1889.28 201.129 Q1889.28 205.874 1891.57 208.513 Q1893.86 211.129 1898 211.129 Q1899.85 211.129 1901.66 210.643 Q1903.49 210.133 1905.29 209.138 L1905.29 213.073 Q1903.51 213.907 1901.59 214.323 Q1899.69 214.74 1897.54 214.74 Q1891.68 214.74 1888.23 211.059 Q1884.78 207.379 1884.78 201.129 Q1884.78 194.786 1888.26 191.152 Q1891.75 187.518 1897.82 187.518 Q1899.78 187.518 1901.66 187.935 Q1903.53 188.328 1905.29 189.138 Z" fill="#000000" fill-rule="nonzero" fill-opacity="1"></path><path clip-path="url(#clip280)" d="M1916.91 180.782 L1916.91 188.143 L1925.69 188.143 L1925.69 191.453 L1916.91 191.453 L1916.91 205.527 Q1916.91 208.698 1917.77 209.601 Q1918.65 210.504 1921.31 210.504 L1925.69 210.504 L1925.69 214.069 L1921.31 214.069 Q1916.38 214.069 1914.51 212.24 Q1912.63 210.388 1912.63 205.527 L1912.63 191.453 L1909.51 191.453 L1909.51 188.143 L1912.63 188.143 L1912.63 180.782 L1916.91 180.782 Z" fill="#000000" fill-rule="nonzero" fill-opacity="1"></path><path clip-path="url(#clip280)" d="M1943.07 201.036 Q1937.91 201.036 1935.92 202.217 Q1933.93 203.397 1933.93 206.245 Q1933.93 208.513 1935.41 209.856 Q1936.91 211.175 1939.48 211.175 Q1943.02 211.175 1945.15 208.675 Q1947.31 206.152 1947.31 201.985 L1947.31 201.036 L1943.07 201.036 M1951.57 199.277 L1951.57 214.069 L1947.31 214.069 L1947.31 210.133 Q1945.85 212.495 1943.67 213.629 Q1941.5 214.74 1938.35 214.74 Q1934.37 214.74 1932.01 212.518 Q1929.67 210.272 1929.67 206.522 Q1929.67 202.147 1932.58 199.925 Q1935.52 197.703 1941.33 197.703 L1947.31 197.703 L1947.31 197.286 Q1947.31 194.347 1945.36 192.749 Q1943.44 191.129 1939.95 191.129 Q1937.72 191.129 1935.62 191.661 Q1933.51 192.194 1931.57 193.259 L1931.57 189.323 Q1933.9 188.421 1936.1 187.981 Q1938.3 187.518 1940.39 187.518 Q1946.01 187.518 1948.79 190.434 Q1951.57 193.351 1951.57 199.277 Z" fill="#000000" fill-rule="nonzero" fill-opacity="1"></path><path clip-path="url(#clip280)" d="M1964.55 180.782 L1964.55 188.143 L1973.33 188.143 L1973.33 191.453 L1964.55 191.453 L1964.55 205.527 Q1964.55 208.698 1965.41 209.601 Q1966.29 210.504 1968.95 210.504 L1973.33 210.504 L1973.33 214.069 L1968.95 214.069 Q1964.02 214.069 1962.15 212.24 Q1960.27 210.388 1960.27 205.527 L1960.27 191.453 L1957.15 191.453 L1957.15 188.143 L1960.27 188.143 L1960.27 180.782 L1964.55 180.782 Z" fill="#000000" fill-rule="nonzero" fill-opacity="1"></path><path clip-path="url(#clip280)" d="M1978.93 188.143 L1983.19 188.143 L1983.19 214.069 L1978.93 214.069 L1978.93 188.143 M1978.93 178.05 L1983.19 178.05 L1983.19 183.444 L1978.93 183.444 L1978.93 178.05 Z" fill="#000000" fill-rule="nonzero" fill-opacity="1"></path><path clip-path="url(#clip280)" d="M2002.14 191.129 Q1998.72 191.129 1996.73 193.814 Q1994.74 196.476 1994.74 201.129 Q1994.74 205.782 1996.71 208.467 Q1998.7 211.129 2002.14 211.129 Q2005.55 211.129 2007.54 208.444 Q2009.53 205.758 2009.53 201.129 Q2009.53 196.522 2007.54 193.837 Q2005.55 191.129 2002.14 191.129 M2002.14 187.518 Q2007.7 187.518 2010.87 191.129 Q2014.04 194.74 2014.04 201.129 Q2014.04 207.495 2010.87 211.129 Q2007.7 214.74 2002.14 214.74 Q1996.57 214.74 1993.39 211.129 Q1990.25 207.495 1990.25 201.129 Q1990.25 194.74 1993.39 191.129 Q1996.57 187.518 2002.14 187.518 Z" fill="#000000" fill-rule="nonzero" fill-opacity="1"></path><path clip-path="url(#clip280)" d="M2042.65 198.421 L2042.65 214.069 L2038.39 214.069 L2038.39 198.559 Q2038.39 194.879 2036.96 193.05 Q2035.52 191.222 2032.65 191.222 Q2029.2 191.222 2027.21 193.421 Q2025.22 195.62 2025.22 199.416 L2025.22 214.069 L2020.94 214.069 L2020.94 188.143 L2025.22 188.143 L2025.22 192.171 Q2026.75 189.833 2028.81 188.675 Q2030.89 187.518 2033.6 187.518 Q2038.07 187.518 2040.36 190.296 Q2042.65 193.05 2042.65 198.421 Z" fill="#000000" fill-rule="nonzero" fill-opacity="1"></path></svg>