<svg xmlns="http://www.w3.org/2000/svg" xmlns:xlink="http://www.w3.org/1999/xlink" width="600" height="400" viewBox="0 0 2400 1600">
<defs>
  <clipPath id="clip110">
    <rect x="0" y="0" width="2400" height="1600"></rect>
  </clipPath>
</defs>
<path clip-path="url(#clip110)" d="M0 1600 L2400 1600 L2400 8.88178e-14 L0 8.88178e-14  Z" fill="#ffffff" fill-rule="evenodd" fill-opacity="1"></path>
<defs>
  <clipPath id="clip111">
    <rect x="480" y="0" width="1681" height="1600"></rect>
  </clipPath>
</defs>
<path clip-path="url(#clip110)" d="M335.195 1486.45 L2352.76 1486.45 L2352.76 47.2441 L335.195 47.2441  Z" fill="#ffffff" fill-rule="evenodd" fill-opacity="1"></path>
<defs>
  <clipPath id="clip112">
    <rect x="335" y="47" width="2019" height="1440"></rect>
  </clipPath>
</defs>
<polyline clip-path="url(#clip112)" style="stroke:#000000; stroke-linecap:round; stroke-linejoin:round; stroke-width:2; stroke-opacity:0.1; fill:none" points="392.296,1486.45 392.296,47.2441 "></polyline>
<polyline clip-path="url(#clip112)" style="stroke:#000000; stroke-linecap:round; stroke-linejoin:round; stroke-width:2; stroke-opacity:0.1; fill:none" points="868.136,1486.45 868.136,47.2441 "></polyline>
<polyline clip-path="url(#clip112)" style="stroke:#000000; stroke-linecap:round; stroke-linejoin:round; stroke-width:2; stroke-opacity:0.1; fill:none" points="1343.98,1486.45 1343.98,47.2441 "></polyline>
<polyline clip-path="url(#clip112)" style="stroke:#000000; stroke-linecap:round; stroke-linejoin:round; stroke-width:2; stroke-opacity:0.1; fill:none" points="1819.82,1486.45 1819.82,47.2441 "></polyline>
<polyline clip-path="url(#clip112)" style="stroke:#000000; stroke-linecap:round; stroke-linejoin:round; stroke-width:2; stroke-opacity:0.1; fill:none" points="2295.66,1486.45 2295.66,47.2441 "></polyline>
<polyline clip-path="url(#clip112)" style="stroke:#000000; stroke-linecap:round; stroke-linejoin:round; stroke-width:2; stroke-opacity:0.1; fill:none" points="335.195,1445.88 2352.76,1445.88 "></polyline>
<polyline clip-path="url(#clip112)" style="stroke:#000000; stroke-linecap:round; stroke-linejoin:round; stroke-width:2; stroke-opacity:0.1; fill:none" points="335.195,1072.82 2352.76,1072.82 "></polyline>
<polyline clip-path="url(#clip112)" style="stroke:#000000; stroke-linecap:round; stroke-linejoin:round; stroke-width:2; stroke-opacity:0.1; fill:none" points="335.195,699.757 2352.76,699.757 "></polyline>
<polyline clip-path="url(#clip112)" style="stroke:#000000; stroke-linecap:round; stroke-linejoin:round; stroke-width:2; stroke-opacity:0.1; fill:none" points="335.195,326.693 2352.76,326.693 "></polyline>
<polyline clip-path="url(#clip110)" style="stroke:#000000; stroke-linecap:round; stroke-linejoin:round; stroke-width:4; stroke-opacity:1; fill:none" points="335.195,1486.45 2352.76,1486.45 "></polyline>
<polyline clip-path="url(#clip110)" style="stroke:#000000; stroke-linecap:round; stroke-linejoin:round; stroke-width:4; stroke-opacity:1; fill:none" points="392.296,1486.45 392.296,1467.55 "></polyline>
<polyline clip-path="url(#clip110)" style="stroke:#000000; stroke-linecap:round; stroke-linejoin:round; stroke-width:4; stroke-opacity:1; fill:none" points="868.136,1486.45 868.136,1467.55 "></polyline>
<polyline clip-path="url(#clip110)" style="stroke:#000000; stroke-linecap:round; stroke-linejoin:round; stroke-width:4; stroke-opacity:1; fill:none" points="1343.98,1486.45 1343.98,1467.55 "></polyline>
<polyline clip-path="url(#clip110)" style="stroke:#000000; stroke-linecap:round; stroke-linejoin:round; stroke-width:4; stroke-opacity:1; fill:none" points="1819.82,1486.45 1819.82,1467.55 "></polyline>
<polyline clip-path="url(#clip110)" style="stroke:#000000; stroke-linecap:round; stroke-linejoin:round; stroke-width:4; stroke-opacity:1; fill:none" points="2295.66,1486.45 2295.66,1467.55 "></polyline>
<path clip-path="url(#clip110)" d="M382.678 1544.91 L390.317 1544.91 L390.317 1518.55 L382.007 1520.21 L382.007 1515.95 L390.271 1514.29 L394.947 1514.29 L394.947 1544.91 L402.585 1544.91 L402.585 1548.85 L382.678 1548.85 L382.678 1544.91 Z" fill="#000000" fill-rule="nonzero" fill-opacity="1"></path><path clip-path="url(#clip110)" d="M862.789 1544.91 L879.108 1544.91 L879.108 1548.85 L857.164 1548.85 L857.164 1544.91 Q859.826 1542.16 864.409 1537.53 Q869.016 1532.88 870.196 1531.53 Q872.441 1529.01 873.321 1527.27 Q874.224 1525.51 874.224 1523.82 Q874.224 1521.07 872.279 1519.33 Q870.358 1517.6 867.256 1517.6 Q865.057 1517.6 862.604 1518.36 Q860.173 1519.13 857.395 1520.68 L857.395 1515.95 Q860.219 1514.82 862.673 1514.24 Q865.127 1513.66 867.164 1513.66 Q872.534 1513.66 875.728 1516.35 Q878.923 1519.03 878.923 1523.52 Q878.923 1525.65 878.113 1527.57 Q877.326 1529.47 875.219 1532.07 Q874.64 1532.74 871.539 1535.95 Q868.437 1539.15 862.789 1544.91 Z" fill="#000000" fill-rule="nonzero" fill-opacity="1"></path><path clip-path="url(#clip110)" d="M1348.22 1530.21 Q1351.58 1530.93 1353.45 1533.2 Q1355.35 1535.47 1355.35 1538.8 Q1355.35 1543.92 1351.83 1546.72 Q1348.32 1549.52 1341.83 1549.52 Q1339.66 1549.52 1337.34 1549.08 Q1335.05 1548.66 1332.6 1547.81 L1332.6 1543.29 Q1334.54 1544.43 1336.86 1545.01 Q1339.17 1545.58 1341.7 1545.58 Q1346.09 1545.58 1348.39 1543.85 Q1350.7 1542.11 1350.7 1538.8 Q1350.7 1535.75 1348.55 1534.03 Q1346.42 1532.3 1342.6 1532.3 L1338.57 1532.3 L1338.57 1528.45 L1342.78 1528.45 Q1346.23 1528.45 1348.06 1527.09 Q1349.89 1525.7 1349.89 1523.11 Q1349.89 1520.45 1347.99 1519.03 Q1346.12 1517.6 1342.6 1517.6 Q1340.68 1517.6 1338.48 1518.01 Q1336.28 1518.43 1333.64 1519.31 L1333.64 1515.14 Q1336.3 1514.4 1338.62 1514.03 Q1340.95 1513.66 1343.01 1513.66 Q1348.34 1513.66 1351.44 1516.09 Q1354.54 1518.5 1354.54 1522.62 Q1354.54 1525.49 1352.9 1527.48 Q1351.26 1529.45 1348.22 1530.21 Z" fill="#000000" fill-rule="nonzero" fill-opacity="1"></path><path clip-path="url(#clip110)" d="M1822.82 1518.36 L1811.02 1536.81 L1822.82 1536.81 L1822.82 1518.36 M1821.6 1514.29 L1827.48 1514.29 L1827.48 1536.81 L1832.41 1536.81 L1832.41 1540.7 L1827.48 1540.7 L1827.48 1548.85 L1822.82 1548.85 L1822.82 1540.7 L1807.22 1540.7 L1807.22 1536.19 L1821.6 1514.29 Z" fill="#000000" fill-rule="nonzero" fill-opacity="1"></path><path clip-path="url(#clip110)" d="M2285.93 1514.29 L2304.29 1514.29 L2304.29 1518.22 L2290.22 1518.22 L2290.22 1526.7 Q2291.23 1526.35 2292.25 1526.19 Q2293.27 1526 2294.29 1526 Q2300.08 1526 2303.46 1529.17 Q2306.84 1532.34 2306.84 1537.76 Q2306.84 1543.34 2303.36 1546.44 Q2299.89 1549.52 2293.57 1549.52 Q2291.4 1549.52 2289.13 1549.15 Q2286.88 1548.78 2284.47 1548.04 L2284.47 1543.34 Q2286.56 1544.47 2288.78 1545.03 Q2291 1545.58 2293.48 1545.58 Q2297.48 1545.58 2299.82 1543.48 Q2302.16 1541.37 2302.16 1537.76 Q2302.16 1534.15 2299.82 1532.04 Q2297.48 1529.94 2293.48 1529.94 Q2291.6 1529.94 2289.73 1530.35 Q2287.88 1530.77 2285.93 1531.65 L2285.93 1514.29 Z" fill="#000000" fill-rule="nonzero" fill-opacity="1"></path><polyline clip-path="url(#clip110)" style="stroke:#000000; stroke-linecap:round; stroke-linejoin:round; stroke-width:4; stroke-opacity:1; fill:none" points="335.195,1486.45 335.195,47.2441 "></polyline>
<polyline clip-path="url(#clip110)" style="stroke:#000000; stroke-linecap:round; stroke-linejoin:round; stroke-width:4; stroke-opacity:1; fill:none" points="335.195,1445.88 354.093,1445.88 "></polyline>
<polyline clip-path="url(#clip110)" style="stroke:#000000; stroke-linecap:round; stroke-linejoin:round; stroke-width:4; stroke-opacity:1; fill:none" points="335.195,1072.82 354.093,1072.82 "></polyline>
<polyline clip-path="url(#clip110)" style="stroke:#000000; stroke-linecap:round; stroke-linejoin:round; stroke-width:4; stroke-opacity:1; fill:none" points="335.195,699.757 354.093,699.757 "></polyline>
<polyline clip-path="url(#clip110)" style="stroke:#000000; stroke-linecap:round; stroke-linejoin:round; stroke-width:4; stroke-opacity:1; fill:none" points="335.195,326.693 354.093,326.693 "></polyline>
<path clip-path="url(#clip110)" d="M287.251 1431.68 Q283.64 1431.68 281.811 1435.25 Q280.006 1438.79 280.006 1445.92 Q280.006 1453.03 281.811 1456.59 Q283.64 1460.13 287.251 1460.13 Q290.885 1460.13 292.691 1456.59 Q294.519 1453.03 294.519 1445.92 Q294.519 1438.79 292.691 1435.25 Q290.885 1431.68 287.251 1431.68 M287.251 1427.98 Q293.061 1427.98 296.117 1432.59 Q299.195 1437.17 299.195 1445.92 Q299.195 1454.65 296.117 1459.25 Q293.061 1463.84 287.251 1463.84 Q281.441 1463.84 278.362 1459.25 Q275.307 1454.65 275.307 1445.92 Q275.307 1437.17 278.362 1432.59 Q281.441 1427.98 287.251 1427.98 Z" fill="#000000" fill-rule="nonzero" fill-opacity="1"></path><path clip-path="url(#clip110)" d="M52.4505 1061.99 L70.8068 1061.99 L70.8068 1065.92 L56.7328 1065.92 L56.7328 1074.4 Q57.7513 1074.05 58.7699 1073.89 Q59.7884 1073.7 60.8069 1073.7 Q66.5939 1073.7 69.9735 1076.87 Q73.3531 1080.04 73.3531 1085.46 Q73.3531 1091.04 69.8809 1094.14 Q66.4087 1097.22 60.0893 1097.22 Q57.9134 1097.22 55.6449 1096.85 Q53.3995 1096.48 50.9921 1095.74 L50.9921 1091.04 Q53.0754 1092.17 55.2977 1092.73 Q57.5199 1093.28 59.9967 1093.28 Q64.0013 1093.28 66.3393 1091.18 Q68.6772 1089.07 68.6772 1085.46 Q68.6772 1081.85 66.3393 1079.74 Q64.0013 1077.64 59.9967 1077.64 Q58.1217 1077.64 56.2467 1078.05 Q54.3949 1078.47 52.4505 1079.35 L52.4505 1061.99 Z" fill="#000000" fill-rule="nonzero" fill-opacity="1"></path><path clip-path="url(#clip110)" d="M82.566 1090.67 L87.4503 1090.67 L87.4503 1096.55 L82.566 1096.55 L82.566 1090.67 Z" fill="#000000" fill-rule="nonzero" fill-opacity="1"></path><path clip-path="url(#clip110)" d="M107.635 1065.07 Q104.024 1065.07 102.196 1068.63 Q100.39 1072.17 100.39 1079.3 Q100.39 1086.41 102.196 1089.97 Q104.024 1093.52 107.635 1093.52 Q111.27 1093.52 113.075 1089.97 Q114.904 1086.41 114.904 1079.3 Q114.904 1072.17 113.075 1068.63 Q111.27 1065.07 107.635 1065.07 M107.635 1061.36 Q113.445 1061.36 116.501 1065.97 Q119.58 1070.55 119.58 1079.3 Q119.58 1088.03 116.501 1092.64 Q113.445 1097.22 107.635 1097.22 Q101.825 1097.22 98.7465 1092.64 Q95.691 1088.03 95.691 1079.3 Q95.691 1070.55 98.7465 1065.97 Q101.825 1061.36 107.635 1061.36 Z" fill="#000000" fill-rule="nonzero" fill-opacity="1"></path><path clip-path="url(#clip110)" d="M137.797 1065.07 Q134.186 1065.07 132.357 1068.63 Q130.552 1072.17 130.552 1079.3 Q130.552 1086.41 132.357 1089.97 Q134.186 1093.52 137.797 1093.52 Q141.431 1093.52 143.237 1089.97 Q145.066 1086.41 145.066 1079.3 Q145.066 1072.17 143.237 1068.63 Q141.431 1065.07 137.797 1065.07 M137.797 1061.36 Q143.607 1061.36 146.663 1065.97 Q149.742 1070.55 149.742 1079.3 Q149.742 1088.03 146.663 1092.64 Q143.607 1097.22 137.797 1097.22 Q131.987 1097.22 128.908 1092.64 Q125.853 1088.03 125.853 1079.3 Q125.853 1070.55 128.908 1065.97 Q131.987 1061.36 137.797 1061.36 Z" fill="#000000" fill-rule="nonzero" fill-opacity="1"></path><path clip-path="url(#clip110)" d="M186.13 1071.09 L175.552 1081.71 L186.13 1092.29 L183.376 1095.09 L172.751 1084.46 L162.126 1095.09 L159.394 1092.29 L169.95 1081.71 L159.394 1071.09 L162.126 1068.28 L172.751 1078.91 L183.376 1068.28 L186.13 1071.09 Z" fill="#000000" fill-rule="nonzero" fill-opacity="1"></path><path clip-path="url(#clip110)" d="M198.491 1092.61 L206.13 1092.61 L206.13 1066.25 L197.82 1067.91 L197.82 1063.65 L206.084 1061.99 L210.76 1061.99 L210.76 1092.61 L218.399 1092.61 L218.399 1096.55 L198.491 1096.55 L198.491 1092.61 Z" fill="#000000" fill-rule="nonzero" fill-opacity="1"></path><path clip-path="url(#clip110)" d="M237.843 1065.07 Q234.232 1065.07 232.403 1068.63 Q230.598 1072.17 230.598 1079.3 Q230.598 1086.41 232.403 1089.97 Q234.232 1093.52 237.843 1093.52 Q241.477 1093.52 243.283 1089.97 Q245.111 1086.41 245.111 1079.3 Q245.111 1072.17 243.283 1068.63 Q241.477 1065.07 237.843 1065.07 M237.843 1061.36 Q243.653 1061.36 246.709 1065.97 Q249.787 1070.55 249.787 1079.3 Q249.787 1088.03 246.709 1092.64 Q243.653 1097.22 237.843 1097.22 Q232.033 1097.22 228.954 1092.64 Q225.899 1088.03 225.899 1079.3 Q225.899 1070.55 228.954 1065.97 Q232.033 1061.36 237.843 1061.36 Z" fill="#000000" fill-rule="nonzero" fill-opacity="1"></path><path clip-path="url(#clip110)" d="M249.787 1055.46 L273.899 1055.46 L273.899 1058.66 L249.787 1058.66 L249.787 1055.46 Z" fill="#000000" fill-rule="nonzero" fill-opacity="1"></path><path clip-path="url(#clip110)" d="M281.14 1041.06 L299.195 1041.06 L299.195 1042.68 L289.002 1069.14 L285.033 1069.14 L294.625 1044.25 L281.14 1044.25 L281.14 1041.06 Z" fill="#000000" fill-rule="nonzero" fill-opacity="1"></path><path clip-path="url(#clip110)" d="M52.3492 719.549 L59.988 719.549 L59.988 693.183 L51.6779 694.85 L51.6779 690.591 L59.9417 688.924 L64.6176 688.924 L64.6176 719.549 L72.2565 719.549 L72.2565 723.484 L52.3492 723.484 L52.3492 719.549 Z" fill="#000000" fill-rule="nonzero" fill-opacity="1"></path><path clip-path="url(#clip110)" d="M81.7009 717.605 L86.5851 717.605 L86.5851 723.484 L81.7009 723.484 L81.7009 717.605 Z" fill="#000000" fill-rule="nonzero" fill-opacity="1"></path><path clip-path="url(#clip110)" d="M106.77 692.003 Q103.159 692.003 101.33 695.568 Q99.5249 699.109 99.5249 706.239 Q99.5249 713.345 101.33 716.91 Q103.159 720.452 106.77 720.452 Q110.404 720.452 112.21 716.91 Q114.039 713.345 114.039 706.239 Q114.039 699.109 112.21 695.568 Q110.404 692.003 106.77 692.003 M106.77 688.299 Q112.58 688.299 115.636 692.906 Q118.715 697.489 118.715 706.239 Q118.715 714.966 115.636 719.572 Q112.58 724.155 106.77 724.155 Q100.96 724.155 97.8813 719.572 Q94.8258 714.966 94.8258 706.239 Q94.8258 697.489 97.8813 692.906 Q100.96 688.299 106.77 688.299 Z" fill="#000000" fill-rule="nonzero" fill-opacity="1"></path><path clip-path="url(#clip110)" d="M136.932 692.003 Q133.321 692.003 131.492 695.568 Q129.687 699.109 129.687 706.239 Q129.687 713.345 131.492 716.91 Q133.321 720.452 136.932 720.452 Q140.566 720.452 142.372 716.91 Q144.201 713.345 144.201 706.239 Q144.201 699.109 142.372 695.568 Q140.566 692.003 136.932 692.003 M136.932 688.299 Q142.742 688.299 145.798 692.906 Q148.876 697.489 148.876 706.239 Q148.876 714.966 145.798 719.572 Q142.742 724.155 136.932 724.155 Q131.122 724.155 128.043 719.572 Q124.988 714.966 124.988 706.239 Q124.988 697.489 128.043 692.906 Q131.122 688.299 136.932 688.299 Z" fill="#000000" fill-rule="nonzero" fill-opacity="1"></path><path clip-path="url(#clip110)" d="M185.265 698.021 L174.686 708.646 L185.265 719.225 L182.511 722.026 L171.886 711.401 L161.261 722.026 L158.529 719.225 L169.085 708.646 L158.529 698.021 L161.261 695.22 L171.886 705.845 L182.511 695.22 L185.265 698.021 Z" fill="#000000" fill-rule="nonzero" fill-opacity="1"></path><path clip-path="url(#clip110)" d="M197.626 719.549 L205.265 719.549 L205.265 693.183 L196.955 694.85 L196.955 690.591 L205.219 688.924 L209.895 688.924 L209.895 719.549 L217.533 719.549 L217.533 723.484 L197.626 723.484 L197.626 719.549 Z" fill="#000000" fill-rule="nonzero" fill-opacity="1"></path><path clip-path="url(#clip110)" d="M236.978 692.003 Q233.367 692.003 231.538 695.568 Q229.732 699.109 229.732 706.239 Q229.732 713.345 231.538 716.91 Q233.367 720.452 236.978 720.452 Q240.612 720.452 242.418 716.91 Q244.246 713.345 244.246 706.239 Q244.246 699.109 242.418 695.568 Q240.612 692.003 236.978 692.003 M236.978 688.299 Q242.788 688.299 245.844 692.906 Q248.922 697.489 248.922 706.239 Q248.922 714.966 245.844 719.572 Q242.788 724.155 236.978 724.155 Q231.168 724.155 228.089 719.572 Q225.033 714.966 225.033 706.239 Q225.033 697.489 228.089 692.906 Q231.168 688.299 236.978 688.299 Z" fill="#000000" fill-rule="nonzero" fill-opacity="1"></path><path clip-path="url(#clip110)" d="M248.922 682.4 L273.034 682.4 L273.034 685.598 L248.922 685.598 L248.922 682.4 Z" fill="#000000" fill-rule="nonzero" fill-opacity="1"></path><path clip-path="url(#clip110)" d="M289.829 680.52 Q287.271 680.52 285.767 682.269 Q284.281 684.018 284.281 687.065 Q284.281 690.093 285.767 691.861 Q287.271 693.61 289.829 693.61 Q292.387 693.61 293.873 691.861 Q295.377 690.093 295.377 687.065 Q295.377 684.018 293.873 682.269 Q292.387 680.52 289.829 680.52 M297.371 668.614 L297.371 672.075 Q295.942 671.398 294.475 671.041 Q293.026 670.683 291.597 670.683 Q287.835 670.683 285.842 673.222 Q283.867 675.761 283.585 680.896 Q284.695 679.26 286.368 678.394 Q288.042 677.51 290.055 677.51 Q294.287 677.51 296.732 680.087 Q299.195 682.645 299.195 687.065 Q299.195 691.391 296.638 694.005 Q294.08 696.619 289.829 696.619 Q284.958 696.619 282.381 692.895 Q279.805 689.152 279.805 682.062 Q279.805 675.404 282.964 671.454 Q286.124 667.486 291.447 667.486 Q292.876 667.486 294.324 667.768 Q295.791 668.05 297.371 668.614 Z" fill="#000000" fill-rule="nonzero" fill-opacity="1"></path><path clip-path="url(#clip110)" d="M52.3492 346.485 L59.988 346.485 L59.988 320.12 L51.6779 321.786 L51.6779 317.527 L59.9417 315.86 L64.6176 315.86 L64.6176 346.485 L72.2565 346.485 L72.2565 350.42 L52.3492 350.42 L52.3492 346.485 Z" fill="#000000" fill-rule="nonzero" fill-opacity="1"></path><path clip-path="url(#clip110)" d="M81.7009 344.541 L86.5851 344.541 L86.5851 350.42 L81.7009 350.42 L81.7009 344.541 Z" fill="#000000" fill-rule="nonzero" fill-opacity="1"></path><path clip-path="url(#clip110)" d="M96.8165 315.86 L115.173 315.86 L115.173 319.795 L101.099 319.795 L101.099 328.268 Q102.117 327.92 103.136 327.758 Q104.154 327.573 105.173 327.573 Q110.96 327.573 114.34 330.744 Q117.719 333.916 117.719 339.332 Q117.719 344.911 114.247 348.013 Q110.775 351.092 104.455 351.092 Q102.279 351.092 100.011 350.721 Q97.7656 350.351 95.3582 349.61 L95.3582 344.911 Q97.4415 346.045 99.6637 346.601 Q101.886 347.156 104.363 347.156 Q108.367 347.156 110.705 345.05 Q113.043 342.943 113.043 339.332 Q113.043 335.721 110.705 333.615 Q108.367 331.508 104.363 331.508 Q102.488 331.508 100.613 331.925 Q98.761 332.342 96.8165 333.221 L96.8165 315.86 Z" fill="#000000" fill-rule="nonzero" fill-opacity="1"></path><path clip-path="url(#clip110)" d="M136.932 318.939 Q133.321 318.939 131.492 322.504 Q129.687 326.045 129.687 333.175 Q129.687 340.281 131.492 343.846 Q133.321 347.388 136.932 347.388 Q140.566 347.388 142.372 343.846 Q144.201 340.281 144.201 333.175 Q144.201 326.045 142.372 322.504 Q140.566 318.939 136.932 318.939 M136.932 315.235 Q142.742 315.235 145.798 319.842 Q148.876 324.425 148.876 333.175 Q148.876 341.902 145.798 346.508 Q142.742 351.092 136.932 351.092 Q131.122 351.092 128.043 346.508 Q124.988 341.902 124.988 333.175 Q124.988 324.425 128.043 319.842 Q131.122 315.235 136.932 315.235 Z" fill="#000000" fill-rule="nonzero" fill-opacity="1"></path><path clip-path="url(#clip110)" d="M185.265 324.957 L174.686 335.582 L185.265 346.161 L182.511 348.962 L171.886 338.337 L161.261 348.962 L158.529 346.161 L169.085 335.582 L158.529 324.957 L161.261 322.157 L171.886 332.782 L182.511 322.157 L185.265 324.957 Z" fill="#000000" fill-rule="nonzero" fill-opacity="1"></path><path clip-path="url(#clip110)" d="M197.626 346.485 L205.265 346.485 L205.265 320.12 L196.955 321.786 L196.955 317.527 L205.219 315.86 L209.895 315.86 L209.895 346.485 L217.533 346.485 L217.533 350.42 L197.626 350.42 L197.626 346.485 Z" fill="#000000" fill-rule="nonzero" fill-opacity="1"></path><path clip-path="url(#clip110)" d="M236.978 318.939 Q233.367 318.939 231.538 322.504 Q229.732 326.045 229.732 333.175 Q229.732 340.281 231.538 343.846 Q233.367 347.388 236.978 347.388 Q240.612 347.388 242.418 343.846 Q244.246 340.281 244.246 333.175 Q244.246 326.045 242.418 322.504 Q240.612 318.939 236.978 318.939 M236.978 315.235 Q242.788 315.235 245.844 319.842 Q248.922 324.425 248.922 333.175 Q248.922 341.902 245.844 346.508 Q242.788 351.092 236.978 351.092 Q231.168 351.092 228.089 346.508 Q225.033 341.902 225.033 333.175 Q225.033 324.425 228.089 319.842 Q231.168 315.235 236.978 315.235 Z" fill="#000000" fill-rule="nonzero" fill-opacity="1"></path><path clip-path="url(#clip110)" d="M248.922 309.337 L273.034 309.337 L273.034 312.534 L248.922 312.534 L248.922 309.337 Z" fill="#000000" fill-rule="nonzero" fill-opacity="1"></path><path clip-path="url(#clip110)" d="M289.829 307.456 Q287.271 307.456 285.767 309.205 Q284.281 310.954 284.281 314.001 Q284.281 317.029 285.767 318.797 Q287.271 320.546 289.829 320.546 Q292.387 320.546 293.873 318.797 Q295.377 317.029 295.377 314.001 Q295.377 310.954 293.873 309.205 Q292.387 307.456 289.829 307.456 M297.371 295.551 L297.371 299.011 Q295.942 298.334 294.475 297.977 Q293.026 297.619 291.597 297.619 Q287.835 297.619 285.842 300.158 Q283.867 302.698 283.585 307.832 Q284.695 306.196 286.368 305.331 Q288.042 304.447 290.055 304.447 Q294.287 304.447 296.732 307.023 Q299.195 309.581 299.195 314.001 Q299.195 318.327 296.638 320.941 Q294.08 323.555 289.829 323.555 Q284.958 323.555 282.381 319.831 Q279.805 316.089 279.805 308.998 Q279.805 302.34 282.964 298.391 Q286.124 294.422 291.447 294.422 Q292.876 294.422 294.324 294.704 Q295.791 294.986 297.371 295.551 Z" fill="#000000" fill-rule="nonzero" fill-opacity="1"></path><polyline clip-path="url(#clip112)" style="stroke:#009af9; stroke-linecap:round; stroke-linejoin:round; stroke-width:4; stroke-opacity:1; fill:none" points="392.296,87.9763 394.201,109.454 396.107,130.508 398.012,151.15 399.917,171.388 401.822,191.232 403.728,210.692 405.633,229.776 407.538,248.492 409.444,266.85 411.349,284.858 413.254,302.523 415.159,319.853 417.065,336.857 418.97,353.541 420.875,369.912 422.78,385.977 424.686,401.744 426.591,417.219 428.496,432.408 430.401,447.318 432.307,461.955 434.212,476.325 436.117,490.433 438.022,504.286 439.928,517.888 441.833,531.246 443.738,544.365 445.644,557.249 447.549,569.903 449.454,582.334 451.359,594.544 453.265,606.54 455.17,618.325 457.075,629.904 458.98,641.281 460.886,652.461 462.791,663.447 464.696,674.244 466.601,684.855 468.507,695.285 470.412,705.536 472.317,715.613 474.223,725.519 476.128,735.258 478.033,744.833 479.938,754.247 481.844,763.504 483.749,772.606 485.654,781.557 487.559,790.36 489.465,799.018 491.37,807.533 493.275,815.908 495.18,824.147 497.086,832.251 498.991,840.224 500.896,848.068 502.801,855.785 504.707,863.378 506.612,870.849 508.517,878.202 510.423,885.436 512.328,892.556 514.233,899.564 516.138,906.461 518.044,913.249 519.949,919.931 521.854,926.508 523.759,932.983 525.665,939.358 527.57,945.633 529.475,951.812 531.38,957.896 533.286,963.886 535.191,969.785 537.096,975.594 539.001,981.315 540.907,986.949 542.812,992.497 544.717,997.962 546.623,1003.35 548.528,1008.65 550.433,1013.87 552.338,1019.02 554.244,1024.09 556.149,1029.08 558.054,1034 559.959,1038.85 561.865,1043.63 563.77,1048.33 565.675,1052.97 567.58,1057.54 569.486,1062.05 571.391,1066.49 573.296,1070.86 575.202,1075.18 577.107,1079.43 579.012,1083.62 580.917,1087.75 582.823,1091.82 584.728,1095.83 586.633,1099.79 588.538,1103.69 590.444,1107.54 592.349,1111.33 594.254,1115.07 596.159,1118.76 598.065,1122.4 599.97,1125.98 601.875,1129.52 603.78,1133.01 605.686,1136.45 607.591,1139.84 609.496,1143.19 611.402,1146.49 613.307,1149.74 615.212,1152.96 617.117,1156.12 619.023,1159.25 620.928,1162.33 622.833,1165.38 624.738,1168.38 626.644,1171.34 628.549,1174.26 630.454,1177.14 632.359,1179.99 634.265,1182.8 636.17,1185.57 638.075,1188.3 639.98,1191 641.886,1193.67 643.791,1196.29 645.696,1198.89 647.602,1201.45 649.507,1203.98 651.412,1206.47 653.317,1208.94 655.223,1211.37 657.128,1213.77 659.033,1216.14 660.938,1218.48 662.844,1220.79 664.749,1223.07 666.654,1225.32 668.559,1227.54 670.465,1229.74 672.37,1231.91 674.275,1234.91 676.181,618.629 678.086,296.142 679.991,1190.88 681.896,1429.93 683.802,1430.09 685.707,1430.24 687.612,1430.4 689.517,1430.55 691.423,1430.7 693.328,1430.85 695.233,1431 697.138,1431.15 699.044,1431.29 700.949,1431.43 702.854,1431.57 704.759,1431.71 706.665,1431.85 708.57,1431.99 710.475,1432.12 712.381,1432.25 714.286,1432.38 716.191,1432.51 718.096,1432.64 720.002,1432.77 721.907,1432.89 723.812,1433.01 725.717,1433.13 727.623,1433.25 729.528,1433.37 731.433,1433.49 733.338,1433.61 735.244,1433.72 737.149,1433.84 739.054,1433.95 740.959,1434.06 742.865,1434.17 744.77,1434.28 746.675,1434.38 748.581,1434.49 750.486,1434.59 752.391,1434.7 754.296,1434.8 756.202,1434.9 758.107,1435 760.012,1435.1 761.917,1435.2 763.823,1435.29 765.728,1435.39 767.633,1435.48 769.538,1435.57 771.444,1435.67 773.349,1435.76 775.254,1435.85 777.16,1435.94 779.065,1436.03 780.97,1436.11 782.875,1436.2 784.781,1436.28 786.686,1436.37 788.591,1436.45 790.496,1436.53 792.402,1436.62 794.307,1436.7 796.212,1436.78 798.117,1436.86 800.023,1436.93 801.928,1437.01 803.833,1437.09 805.738,1437.16 807.644,1437.24 809.549,1437.31 811.454,1437.38 813.36,1437.46 815.265,1437.53 817.17,1437.6 819.075,1437.67 820.981,1437.74 822.886,1437.81 824.791,1437.88 826.696,1437.94 828.602,1438.01 830.507,1438.08 832.412,1438.14 834.317,1438.2 836.223,1438.27 838.128,1438.33 840.033,1438.39 841.939,1438.46 843.844,1438.52 845.749,1438.58 847.654,1438.64 849.56,1438.7 851.465,1438.76 853.37,1438.81 855.275,1438.87 857.181,1438.93 859.086,1438.98 860.991,1439.04 862.896,1439.1 864.802,1439.15 866.707,1439.2 868.612,1439.26 870.517,1439.31 872.423,1439.36 874.328,1439.42 876.233,1439.47 878.139,1439.52 880.044,1439.57 881.949,1439.62 883.854,1439.67 885.76,1439.72 887.665,1439.77 889.57,1439.81 891.475,1439.86 893.381,1439.91 895.286,1439.95 897.191,1440 899.096,1440.05 901.002,1440.09 902.907,1440.14 904.812,1440.18 906.717,1440.23 908.623,1440.27 910.528,1440.31 912.433,1440.35 914.339,1440.4 916.244,1440.44 918.149,1440.48 920.054,1440.52 921.96,1440.56 923.865,1440.6 925.77,1440.64 927.675,1440.68 929.581,1440.72 931.486,1440.76 933.391,1440.8 935.296,1440.84 937.202,1440.87 939.107,1440.91 941.012,1440.95 942.918,1440.99 944.823,1441.02 946.728,1441.06 948.633,1441.09 950.539,1441.13 952.444,1441.16 954.349,1441.2 956.254,1441.23 958.16,1441.27 960.065,1441.3 961.97,1441.33 963.875,1441.37 965.781,1441.4 967.686,1441.43 969.591,1441.47 971.496,1441.5 973.402,1441.53 975.307,1441.56 977.212,1441.59 979.118,1441.62 981.023,1441.65 982.928,1441.68 984.833,1441.71 986.739,1441.74 988.644,1441.77 990.549,1441.8 992.454,1441.83 994.36,1441.86 996.265,1441.89 998.17,1441.92 1000.08,1441.94 1001.98,1441.97 1003.89,1442 1005.79,1442.03 1007.7,1442.05 1009.6,1442.08 1011.51,1442.11 1013.41,1442.13 1015.32,1442.16 1017.22,1442.18 1019.13,1442.21 1021.03,1442.24 1022.94,1442.26 1024.84,1442.29 1026.75,1442.31 1028.65,1442.33 1030.56,1442.36 1032.46,1442.38 1034.37,1442.41 1036.28,1442.43 1038.18,1442.45 1040.09,1442.48 1041.99,1442.5 1043.9,1442.52 1045.8,1442.55 1047.71,1442.57 1049.61,1442.59 1051.52,1442.61 1053.42,1442.64 1055.33,1442.66 1057.23,1442.68 1059.14,1442.7 1061.04,1442.72 1062.95,1442.74 1064.85,1442.76 1066.76,1442.78 1068.66,1442.8 1070.57,1442.82 1072.48,1442.85 1074.38,1442.87 1076.29,1442.88 1078.19,1442.9 1080.1,1442.92 1082,1442.94 1083.91,1442.96 1085.81,1442.98 1087.72,1443 1089.62,1443.02 1091.53,1443.04 1093.43,1443.06 1095.34,1443.07 1097.24,1443.09 1099.15,1443.11 1101.05,1443.13 1102.96,1443.15 1104.86,1443.16 1106.77,1443.18 1108.68,1443.2 1110.58,1443.22 1112.49,1443.23 1114.39,1443.25 1116.3,1443.27 1118.2,1443.28 1120.11,1443.3 1122.01,1443.32 1123.92,1443.33 1125.82,1443.35 1127.73,1443.36 1129.63,1443.38 1131.54,1443.4 1133.44,1443.41 1135.35,1443.43 1137.25,1443.44 1139.16,1443.46 1141.06,1443.47 1142.97,1443.49 1144.88,1443.5 1146.78,1443.52 1148.69,1443.53 1150.59,1443.55 1152.5,1443.56 1154.4,1443.58 1156.31,1443.59 1158.21,1443.6 1160.12,1443.62 1162.02,1443.63 1163.93,1443.65 1165.83,1443.66 1167.74,1443.67 1169.64,1443.69 1171.55,1443.7 1173.45,1443.71 1175.36,1443.73 1177.27,1443.74 1179.17,1443.75 1181.08,1443.76 1182.98,1443.78 1184.89,1443.79 1186.79,1443.8 1188.7,1443.81 1190.6,1443.83 1192.51,1443.84 1194.41,1443.85 1196.32,1443.86 1198.22,1443.88 1200.13,1443.89 1202.03,1443.9 1203.94,1443.91 1205.84,1443.92 1207.75,1443.93 1209.65,1443.95 1211.56,1443.96 1213.47,1443.97 1215.37,1443.98 1217.28,1443.99 1219.18,1444 1221.09,1444.01 1222.99,1444.02 1224.9,1444.04 1226.8,1444.05 1228.71,1444.06 1230.61,1444.07 1232.52,1444.08 1234.42,1444.09 1236.33,1444.1 1238.23,1444.11 1240.14,1444.12 1242.04,1444.13 1243.95,1444.14 1245.85,1444.15 1247.76,1444.16 1249.67,1444.17 1251.57,1444.18 1253.48,1444.19 1255.38,1444.2 1257.29,1444.21 1259.19,1444.22 1261.1,1444.23 1263,1444.24 1264.91,1444.25 1266.81,1444.25 1268.72,1444.26 1270.62,1444.27 1272.53,1444.28 1274.43,1444.29 1276.34,1444.3 1278.24,1444.31 1280.15,1444.32 1282.05,1444.33 1283.96,1444.34 1285.87,1444.34 1287.77,1444.35 1289.68,1444.36 1291.58,1444.37 1293.49,1444.38 1295.39,1444.39 1297.3,1444.39 1299.2,1444.4 1301.11,1444.41 1303.01,1444.42 1304.92,1444.43 1306.82,1444.43 1308.73,1444.44 1310.63,1444.45 1312.54,1444.46 1314.44,1444.47 1316.35,1444.47 1318.25,1444.48 1320.16,1444.49 1322.07,1444.5 1323.97,1444.5 1325.88,1444.51 1327.78,1444.52 1329.69,1444.53 1331.59,1444.53 1333.5,1444.54 1335.4,1444.55 1337.31,1444.56 1339.21,1444.56 1341.12,1444.57 1343.02,1444.58 1344.93,1444.58 1346.83,1444.59 1348.74,1444.6 1350.64,1444.6 1352.55,1444.61 1354.45,1444.62 1356.36,1444.62 1358.27,1444.63 1360.17,1444.64 1362.08,1444.64 1363.98,1444.65 1365.89,1444.66 1367.79,1444.66 1369.7,1444.67 1371.6,1444.68 1373.51,1444.68 1375.41,1444.69 1377.32,1444.7 1379.22,1444.7 1381.13,1444.71 1383.03,1444.71 1384.94,1444.72 1386.84,1444.73 1388.75,1444.73 1390.65,1444.74 1392.56,1444.74 1394.47,1444.75 1396.37,1444.76 1398.28,1444.76 1400.18,1444.77 1402.09,1444.77 1403.99,1444.78 1405.9,1444.78 1407.8,1444.79 1409.71,1444.8 1411.61,1444.8 1413.52,1444.81 1415.42,1444.81 1417.33,1444.82 1419.23,1444.82 1421.14,1444.83 1423.04,1444.83 1424.95,1444.84 1426.85,1444.84 1428.76,1444.85 1430.67,1444.85 1432.57,1444.86 1434.48,1444.87 1436.38,1444.87 1438.29,1444.88 1440.19,1444.88 1442.1,1444.89 1444,1444.89 1445.91,1444.9 1447.81,1444.9 1449.72,1444.91 1451.62,1444.91 1453.53,1444.91 1455.43,1444.92 1457.34,1444.92 1459.24,1444.93 1461.15,1444.93 1463.05,1444.94 1464.96,1444.94 1466.87,1444.95 1468.77,1444.95 1470.68,1444.96 1472.58,1444.96 1474.49,1444.97 1476.39,1444.97 1478.3,1444.97 1480.2,1444.98 1482.11,1444.98 1484.01,1444.99 1485.92,1444.99 1487.82,1445 1489.73,1445 1491.63,1445.01 1493.54,1445.01 1495.44,1445.01 1497.35,1445.02 1499.25,1445.02 1501.16,1445.03 1503.07,1445.03 1504.97,1445.03 1506.88,1445.04 1508.78,1445.04 1510.69,1445.05 1512.59,1445.05 1514.5,1445.05 1516.4,1445.06 1518.31,1445.06 1520.21,1445.07 1522.12,1445.07 1524.02,1445.07 1525.93,1445.08 1527.83,1445.08 1529.74,1445.09 1531.64,1445.09 1533.55,1445.09 1535.45,1445.1 1537.36,1445.1 1539.27,1445.1 1541.17,1445.11 1543.08,1445.11 1544.98,1445.12 1546.89,1445.12 1548.79,1445.12 1550.7,1445.13 1552.6,1445.13 1554.51,1445.13 1556.41,1445.14 1558.32,1445.14 1560.22,1445.14 1562.13,1445.15 1564.03,1445.15 1565.94,1445.15 1567.84,1445.16 1569.75,1445.16 1571.65,1445.16 1573.56,1445.17 1575.47,1445.17 1577.37,1445.17 1579.28,1445.18 1581.18,1445.18 1583.09,1445.18 1584.99,1445.19 1586.9,1445.19 1588.8,1445.19 1590.71,1445.2 1592.61,1445.2 1594.52,1445.2 1596.42,1445.21 1598.33,1445.21 1600.23,1445.21 1602.14,1445.21 1604.04,1445.22 1605.95,1445.22 1607.85,1445.22 1609.76,1445.23 1611.67,1445.23 1613.57,1445.23 1615.48,1445.24 1617.38,1445.24 1619.29,1445.24 1621.19,1445.24 1623.1,1445.25 1625,1445.25 1626.91,1445.25 1628.81,1445.26 1630.72,1445.26 1632.62,1445.26 1634.53,1445.26 1636.43,1445.27 1638.34,1445.27 1640.24,1445.27 1642.15,1445.27 1644.05,1445.28 1645.96,1445.28 1647.87,1445.28 1649.77,1445.29 1651.68,1445.29 1653.58,1445.29 1655.49,1445.29 1657.39,1445.3 1659.3,1445.3 1661.2,1445.3 1663.11,1445.3 1665.01,1445.31 1666.92,1445.31 1668.82,1445.31 1670.73,1445.31 1672.63,1445.32 1674.54,1445.32 1676.44,1445.32 1678.35,1445.32 1680.25,1445.33 1682.16,1445.33 1684.07,1445.33 1685.97,1445.33 1687.88,1445.34 1689.78,1445.34 1691.69,1445.34 1693.59,1445.34 1695.5,1445.34 1697.4,1445.35 1699.31,1445.35 1701.21,1445.35 1703.12,1445.35 1705.02,1445.36 1706.93,1445.36 1708.83,1445.36 1710.74,1445.36 1712.64,1445.36 1714.55,1445.37 1716.45,1445.37 1718.36,1445.37 1720.27,1445.37 1722.17,1445.38 1724.08,1445.38 1725.98,1445.38 1727.89,1445.38 1729.79,1445.38 1731.7,1445.39 1733.6,1445.39 1735.51,1445.39 1737.41,1445.39 1739.32,1445.39 1741.22,1445.4 1743.13,1445.4 1745.03,1445.4 1746.94,1445.4 1748.84,1445.4 1750.75,1445.41 1752.65,1445.41 1754.56,1445.41 1756.47,1445.41 1758.37,1445.41 1760.28,1445.42 1762.18,1445.42 1764.09,1445.42 1765.99,1445.42 1767.9,1445.42 1769.8,1445.43 1771.71,1445.43 1773.61,1445.43 1775.52,1445.43 1777.42,1445.43 1779.33,1445.44 1781.23,1445.44 1783.14,1445.44 1785.04,1445.44 1786.95,1445.44 1788.85,1445.44 1790.76,1445.45 1792.67,1445.45 1794.57,1445.45 1796.48,1445.45 1798.38,1445.45 1800.29,1445.46 1802.19,1445.46 1804.1,1445.46 1806,1445.46 1807.91,1445.46 1809.81,1445.46 1811.72,1445.47 1813.62,1445.47 1815.53,1445.47 1817.43,1445.47 1819.34,1445.47 1821.24,1445.47 1823.15,1445.48 1825.05,1445.48 1826.96,1445.48 1828.87,1445.48 1830.77,1445.48 1832.68,1445.48 1834.58,1445.49 1836.49,1445.49 1838.39,1445.49 1840.3,1445.49 1842.2,1445.49 1844.11,1445.49 1846.01,1445.49 1847.92,1445.5 1849.82,1445.5 1851.73,1445.5 1853.63,1445.5 1855.54,1445.5 1857.44,1445.5 1859.35,1445.51 1861.25,1445.51 1863.16,1445.51 1865.07,1445.51 1866.97,1445.51 1868.88,1445.51 1870.78,1445.51 1872.69,1445.52 1874.59,1445.52 1876.5,1445.52 1878.4,1445.52 1880.31,1445.52 1882.21,1445.52 1884.12,1445.52 1886.02,1445.53 1887.93,1445.53 1889.83,1445.53 1891.74,1445.53 1893.64,1445.53 1895.55,1445.53 1897.45,1445.53 1899.36,1445.53 1901.27,1445.54 1903.17,1445.54 1905.08,1445.54 1906.98,1445.54 1908.89,1445.54 1910.79,1445.54 1912.7,1445.54 1914.6,1445.55 1916.51,1445.55 1918.41,1445.55 1920.32,1445.55 1922.22,1445.55 1924.13,1445.55 1926.03,1445.55 1927.94,1445.55 1929.84,1445.56 1931.75,1445.56 1933.65,1445.56 1935.56,1445.56 1937.47,1445.56 1939.37,1445.56 1941.28,1445.56 1943.18,1445.56 1945.09,1445.57 1946.99,1445.57 1948.9,1445.57 1950.8,1445.57 1952.71,1445.57 1954.61,1445.57 1956.52,1445.57 1958.42,1445.57 1960.33,1445.57 1962.23,1445.58 1964.14,1445.58 1966.04,1445.58 1967.95,1445.58 1969.85,1445.58 1971.76,1445.58 1973.67,1445.58 1975.57,1445.58 1977.48,1445.58 1979.38,1445.59 1981.29,1445.59 1983.19,1445.59 1985.1,1445.59 1987,1445.59 1988.91,1445.59 1990.81,1445.59 1992.72,1445.59 1994.62,1445.59 1996.53,1445.6 1998.43,1445.6 2000.34,1445.6 2002.24,1445.6 2004.15,1445.6 2006.05,1445.6 2007.96,1445.6 2009.87,1445.6 2011.77,1445.6 2013.68,1445.6 2015.58,1445.61 2017.49,1445.61 2019.39,1445.61 2021.3,1445.61 2023.2,1445.61 2025.11,1445.61 2027.01,1445.61 2028.92,1445.61 2030.82,1445.61 2032.73,1445.61 2034.63,1445.62 2036.54,1445.62 2038.44,1445.62 2040.35,1445.62 2042.25,1445.62 2044.16,1445.62 2046.07,1445.62 2047.97,1445.62 2049.88,1445.62 2051.78,1445.62 2053.69,1445.63 2055.59,1445.63 2057.5,1445.63 2059.4,1445.63 2061.31,1445.63 2063.21,1445.63 2065.12,1445.63 2067.02,1445.63 2068.93,1445.63 2070.83,1445.63 2072.74,1445.63 2074.64,1445.64 2076.55,1445.64 2078.46,1445.64 2080.36,1445.64 2082.27,1445.64 2084.17,1445.64 2086.08,1445.64 2087.98,1445.64 2089.89,1445.64 2091.79,1445.64 2093.7,1445.64 2095.6,1445.64 2097.51,1445.65 2099.41,1445.65 2101.32,1445.65 2103.22,1445.65 2105.13,1445.65 2107.03,1445.65 2108.94,1445.65 2110.84,1445.65 2112.75,1445.65 2114.66,1445.65 2116.56,1445.65 2118.47,1445.65 2120.37,1445.66 2122.28,1445.66 2124.18,1445.66 2126.09,1445.66 2127.99,1445.66 2129.9,1445.66 2131.8,1445.66 2133.71,1445.66 2135.61,1445.66 2137.52,1445.66 2139.42,1445.66 2141.33,1445.66 2143.23,1445.66 2145.14,1445.67 2147.04,1445.67 2148.95,1445.67 2150.86,1445.67 2152.76,1445.67 2154.67,1445.67 2156.57,1445.67 2158.48,1445.67 2160.38,1445.67 2162.29,1445.67 2164.19,1445.67 2166.1,1445.67 2168,1445.67 2169.91,1445.67 2171.81,1445.68 2173.72,1445.68 2175.62,1445.68 2177.53,1445.68 2179.43,1445.68 2181.34,1445.68 2183.24,1445.68 2185.15,1445.68 2187.06,1445.68 2188.96,1445.68 2190.87,1445.68 2192.77,1445.68 2194.68,1445.68 2196.58,1445.68 2198.49,1445.69 2200.39,1445.69 2202.3,1445.69 2204.2,1445.69 2206.11,1445.69 2208.01,1445.69 2209.92,1445.69 2211.82,1445.69 2213.73,1445.69 2215.63,1445.69 2217.54,1445.69 2219.44,1445.69 2221.35,1445.69 2223.26,1445.69 2225.16,1445.69 2227.07,1445.69 2228.97,1445.7 2230.88,1445.7 2232.78,1445.7 2234.69,1445.7 2236.59,1445.7 2238.5,1445.7 2240.4,1445.7 2242.31,1445.7 2244.21,1445.7 2246.12,1445.7 2248.02,1445.7 2249.93,1445.7 2251.83,1445.7 2253.74,1445.7 2255.64,1445.7 2257.55,1445.7 2259.46,1445.71 2261.36,1445.71 2263.27,1445.71 2265.17,1445.71 2267.08,1445.71 2268.98,1445.71 2270.89,1445.71 2272.79,1445.71 2274.7,1445.71 2276.6,1445.71 2278.51,1445.71 2280.41,1445.71 2282.32,1445.71 2284.22,1445.71 2286.13,1445.71 2288.03,1445.71 2289.94,1445.71 2291.84,1445.71 2293.75,1445.72 2295.66,1445.72 "></polyline>
<path clip-path="url(#clip110)" d="M2031.32 198.898 L2285.5 198.898 L2285.5 95.2176 L2031.32 95.2176  Z" fill="#ffffff" fill-rule="evenodd" fill-opacity="1"></path>
<polyline clip-path="url(#clip110)" style="stroke:#000000; stroke-linecap:round; stroke-linejoin:round; stroke-width:4; stroke-opacity:1; fill:none" points="2031.32,198.898 2285.5,198.898 2285.5,95.2176 2031.32,95.2176 2031.32,198.898 "></polyline>
<polyline clip-path="url(#clip110)" style="stroke:#009af9; stroke-linecap:round; stroke-linejoin:round; stroke-width:4; stroke-opacity:1; fill:none" points="2053.73,147.058 2188.24,147.058 "></polyline>
<path clip-path="url(#clip110)" d="M2224.5 166.745 Q2222.69 171.375 2220.98 172.787 Q2219.27 174.199 2216.4 174.199 L2212.99 174.199 L2212.99 170.634 L2215.49 170.634 Q2217.25 170.634 2218.23 169.8 Q2219.2 168.967 2220.38 165.865 L2221.14 163.921 L2210.66 138.412 L2215.17 138.412 L2223.27 158.689 L2231.37 138.412 L2235.89 138.412 L2224.5 166.745 Z" fill="#000000" fill-rule="nonzero" fill-opacity="1"></path><path clip-path="url(#clip110)" d="M2243.18 160.402 L2250.82 160.402 L2250.82 134.037 L2242.51 135.703 L2242.51 131.444 L2250.77 129.778 L2255.45 129.778 L2255.45 160.402 L2263.09 160.402 L2263.09 164.338 L2243.18 164.338 L2243.18 160.402 Z" fill="#000000" fill-rule="nonzero" fill-opacity="1"></path></svg>